<svg width="63" height="19" viewBox="0 0 63 19" fill="none" xmlns="http://www.w3.org/2000/svg">
<path d="M9.404 5.324C9.404 5.996 9.242 6.626 8.918 7.214C8.606 7.802 8.108 8.276 7.424 8.636C6.752 8.996 5.9 9.176 4.868 9.176H2.762V14H0.242V1.436H4.868C5.84 1.436 6.668 1.604 7.352 1.94C8.036 2.276 8.546 2.738 8.882 3.326C9.23 3.914 9.404 4.58 9.404 5.324ZM4.76 7.142C5.456 7.142 5.972 6.986 6.308 6.674C6.644 6.35 6.812 5.9 6.812 5.324C6.812 4.1 6.128 3.488 4.76 3.488H2.762V7.142H4.76ZM13.7132 0.68V14H11.1932V0.68H13.7132ZM15.5549 8.978C15.5549 7.97 15.7529 7.076 16.1489 6.296C16.5569 5.516 17.1029 4.916 17.7869 4.496C18.4829 4.076 19.2569 3.866 20.1089 3.866C20.8529 3.866 21.5009 4.016 22.0529 4.316C22.6169 4.616 23.0669 4.994 23.4029 5.45V4.028H25.9409V14H23.4029V12.542C23.0789 13.01 22.6289 13.4 22.0529 13.712C21.4889 14.012 20.8349 14.162 20.0909 14.162C19.2509 14.162 18.4829 13.946 17.7869 13.514C17.1029 13.082 16.5569 12.476 16.1489 11.696C15.7529 10.904 15.5549 9.998 15.5549 8.978ZM23.4029 9.014C23.4029 8.402 23.2829 7.88 23.0429 7.448C22.8029 7.004 22.4789 6.668 22.0709 6.44C21.6629 6.2 21.2249 6.08 20.7569 6.08C20.2889 6.08 19.8569 6.194 19.4609 6.422C19.0649 6.65 18.7409 6.986 18.4889 7.43C18.2489 7.862 18.1289 8.378 18.1289 8.978C18.1289 9.578 18.2489 10.106 18.4889 10.562C18.7409 11.006 19.0649 11.348 19.4609 11.588C19.8689 11.828 20.3009 11.948 20.7569 11.948C21.2249 11.948 21.6629 11.834 22.0709 11.606C22.4789 11.366 22.8029 11.03 23.0429 10.598C23.2829 10.154 23.4029 9.626 23.4029 9.014ZM37.9422 4.028L31.7682 18.716H29.0862L31.2462 13.748L27.2502 4.028H30.0762L32.6502 10.994L35.2602 4.028H37.9422ZM45.1326 14.126C43.9566 14.126 42.8766 13.85 41.8926 13.298C40.9086 12.746 40.1286 11.984 39.5526 11.012C38.9766 10.028 38.6886 8.918 38.6886 7.682C38.6886 6.458 38.9766 5.36 39.5526 4.388C40.1286 3.404 40.9086 2.636 41.8926 2.084C42.8766 1.532 43.9566 1.256 45.1326 1.256C46.3206 1.256 47.4006 1.532 48.3726 2.084C49.3566 2.636 50.1306 3.404 50.6946 4.388C51.2706 5.36 51.5586 6.458 51.5586 7.682C51.5586 8.918 51.2706 10.028 50.6946 11.012C50.1306 11.984 49.3566 12.746 48.3726 13.298C47.3886 13.85 46.3086 14.126 45.1326 14.126ZM45.1326 11.876C45.8886 11.876 46.5546 11.708 47.1306 11.372C47.7066 11.024 48.1566 10.532 48.4806 9.896C48.8046 9.26 48.9666 8.522 48.9666 7.682C48.9666 6.842 48.8046 6.11 48.4806 5.486C48.1566 4.85 47.7066 4.364 47.1306 4.028C46.5546 3.692 45.8886 3.524 45.1326 3.524C44.3766 3.524 43.7046 3.692 43.1166 4.028C42.5406 4.364 42.0906 4.85 41.7666 5.486C41.4426 6.11 41.2806 6.842 41.2806 7.682C41.2806 8.522 41.4426 9.26 41.7666 9.896C42.0906 10.532 42.5406 11.024 43.1166 11.372C43.7046 11.708 44.3766 11.876 45.1326 11.876ZM58.9594 3.884C60.1474 3.884 61.1074 4.262 61.8394 5.018C62.5714 5.762 62.9374 6.806 62.9374 8.15V14H60.4174V8.492C60.4174 7.7 60.2194 7.094 59.8234 6.674C59.4274 6.242 58.8874 6.026 58.2034 6.026C57.5074 6.026 56.9554 6.242 56.5474 6.674C56.1514 7.094 55.9534 7.7 55.9534 8.492V14H53.4334V4.028H55.9534V5.27C56.2894 4.838 56.7154 4.502 57.2314 4.262C57.7594 4.01 58.3354 3.884 58.9594 3.884Z" fill="url(#paint0_radial_199_1679)"/>
<defs>
<radialGradient id="paint0_radial_199_1679" cx="0" cy="0" r="1" gradientUnits="userSpaceOnUse" gradientTransform="translate(56.75 7.5) rotate(165.977) scale(42.5171 93.9041)">
<stop stop-color="#FF2C78"/>
<stop offset="1" stop-color="#DCA4FF"/>
</radialGradient>
</defs>
</svg>
