<svg width="91" height="17" viewBox="0 0 91 17" fill="none" xmlns="http://www.w3.org/2000/svg">
<path d="M1.52 10.89H5.18V12H0.155V1.545H1.52V10.89ZM10.2146 12.135C9.44461 12.135 8.74461 11.96 8.11461 11.61C7.49461 11.26 7.00461 10.765 6.64461 10.125C6.29461 9.475 6.11961 8.725 6.11961 7.875C6.11961 7.035 6.29961 6.295 6.65961 5.655C7.02961 5.005 7.52961 4.51 8.15961 4.17C8.78961 3.82 9.49461 3.645 10.2746 3.645C11.0546 3.645 11.7596 3.82 12.3896 4.17C13.0196 4.51 13.5146 5 13.8746 5.64C14.2446 6.28 14.4296 7.025 14.4296 7.875C14.4296 8.725 14.2396 9.475 13.8596 10.125C13.4896 10.765 12.9846 11.26 12.3446 11.61C11.7046 11.96 10.9946 12.135 10.2146 12.135ZM10.2146 10.935C10.7046 10.935 11.1646 10.82 11.5946 10.59C12.0246 10.36 12.3696 10.015 12.6296 9.555C12.8996 9.095 13.0346 8.535 13.0346 7.875C13.0346 7.215 12.9046 6.655 12.6446 6.195C12.3846 5.735 12.0446 5.395 11.6246 5.175C11.2046 4.945 10.7496 4.83 10.2596 4.83C9.75961 4.83 9.29961 4.945 8.87961 5.175C8.46961 5.395 8.13961 5.735 7.88961 6.195C7.63961 6.655 7.51461 7.215 7.51461 7.875C7.51461 8.545 7.63461 9.11 7.87461 9.57C8.12461 10.03 8.45461 10.375 8.86461 10.605C9.27461 10.825 9.72461 10.935 10.2146 10.935ZM19.1343 12.135C18.5043 12.135 17.9393 12.03 17.4393 11.82C16.9393 11.6 16.5443 11.3 16.2543 10.92C15.9643 10.53 15.8043 10.085 15.7743 9.585H17.1843C17.2243 9.995 17.4143 10.33 17.7543 10.59C18.1043 10.85 18.5593 10.98 19.1193 10.98C19.6393 10.98 20.0493 10.865 20.3493 10.635C20.6493 10.405 20.7993 10.115 20.7993 9.765C20.7993 9.405 20.6393 9.14 20.3193 8.97C19.9993 8.79 19.5043 8.615 18.8343 8.445C18.2243 8.285 17.7243 8.125 17.3343 7.965C16.9543 7.795 16.6243 7.55 16.3443 7.23C16.0743 6.9 15.9393 6.47 15.9393 5.94C15.9393 5.52 16.0643 5.135 16.3143 4.785C16.5643 4.435 16.9193 4.16 17.3793 3.96C17.8393 3.75 18.3643 3.645 18.9543 3.645C19.8643 3.645 20.5993 3.875 21.1593 4.335C21.7193 4.795 22.0193 5.425 22.0593 6.225H20.6943C20.6643 5.795 20.4893 5.45 20.1693 5.19C19.8593 4.93 19.4393 4.8 18.9093 4.8C18.4193 4.8 18.0293 4.905 17.7393 5.115C17.4493 5.325 17.3043 5.6 17.3043 5.94C17.3043 6.21 17.3893 6.435 17.5593 6.615C17.7393 6.785 17.9593 6.925 18.2193 7.035C18.4893 7.135 18.8593 7.25 19.3293 7.38C19.9193 7.54 20.3993 7.7 20.7693 7.86C21.1393 8.01 21.4543 8.24 21.7143 8.55C21.9843 8.86 22.1243 9.265 22.1343 9.765C22.1343 10.215 22.0093 10.62 21.7593 10.98C21.5093 11.34 21.1543 11.625 20.6943 11.835C20.2443 12.035 19.7243 12.135 19.1343 12.135ZM29.7613 5.925V7.08H23.7763V5.925H29.7613ZM38.503 9.675H33.943L33.103 12H31.663L35.443 1.605H37.018L40.783 12H39.343L38.503 9.675ZM38.113 8.565L36.223 3.285L34.333 8.565H38.113ZM46.4354 3.63C47.4354 3.63 48.2454 3.935 48.8654 4.545C49.4854 5.145 49.7954 6.015 49.7954 7.155V12H48.4454V7.35C48.4454 6.53 48.2404 5.905 47.8304 5.475C47.4204 5.035 46.8604 4.815 46.1504 4.815C45.4304 4.815 44.8554 5.04 44.4254 5.49C44.0054 5.94 43.7954 6.595 43.7954 7.455V12H42.4304V3.78H43.7954V4.95C44.0654 4.53 44.4304 4.205 44.8904 3.975C45.3604 3.745 45.8754 3.63 46.4354 3.63ZM55.4151 3.645C56.1251 3.645 56.7451 3.8 57.2751 4.11C57.8151 4.42 58.2151 4.81 58.4751 5.28V3.78H59.8551V12.18C59.8551 12.93 59.6951 13.595 59.3751 14.175C59.0551 14.765 58.5951 15.225 57.9951 15.555C57.4051 15.885 56.7151 16.05 55.9251 16.05C54.8451 16.05 53.9451 15.795 53.2251 15.285C52.5051 14.775 52.0801 14.08 51.9501 13.2H53.3001C53.4501 13.7 53.7601 14.1 54.2301 14.4C54.7001 14.71 55.2651 14.865 55.9251 14.865C56.6751 14.865 57.2851 14.63 57.7551 14.16C58.2351 13.69 58.4751 13.03 58.4751 12.18V10.455C58.2051 10.935 57.8051 11.335 57.2751 11.655C56.7451 11.975 56.1251 12.135 55.4151 12.135C54.6851 12.135 54.0201 11.955 53.4201 11.595C52.8301 11.235 52.3651 10.73 52.0251 10.08C51.6851 9.43 51.5151 8.69 51.5151 7.86C51.5151 7.02 51.6851 6.285 52.0251 5.655C52.3651 5.015 52.8301 4.52 53.4201 4.17C54.0201 3.82 54.6851 3.645 55.4151 3.645ZM58.4751 7.875C58.4751 7.255 58.3501 6.715 58.1001 6.255C57.8501 5.795 57.5101 5.445 57.0801 5.205C56.6601 4.955 56.1951 4.83 55.6851 4.83C55.1751 4.83 54.7101 4.95 54.2901 5.19C53.8701 5.43 53.5351 5.78 53.2851 6.24C53.0351 6.7 52.9101 7.24 52.9101 7.86C52.9101 8.49 53.0351 9.04 53.2851 9.51C53.5351 9.97 53.8701 10.325 54.2901 10.575C54.7101 10.815 55.1751 10.935 55.6851 10.935C56.1951 10.935 56.6601 10.815 57.0801 10.575C57.5101 10.325 57.8501 9.97 58.1001 9.51C58.3501 9.04 58.4751 8.495 58.4751 7.875ZM69.6618 7.575C69.6618 7.835 69.6468 8.11 69.6168 8.4H63.0468C63.0968 9.21 63.3718 9.845 63.8718 10.305C64.3818 10.755 64.9968 10.98 65.7168 10.98C66.3068 10.98 66.7968 10.845 67.1868 10.575C67.5868 10.295 67.8668 9.925 68.0268 9.465H69.4968C69.2768 10.255 68.8368 10.9 68.1768 11.4C67.5168 11.89 66.6968 12.135 65.7168 12.135C64.9368 12.135 64.2368 11.96 63.6168 11.61C63.0068 11.26 62.5268 10.765 62.1768 10.125C61.8268 9.475 61.6518 8.725 61.6518 7.875C61.6518 7.025 61.8218 6.28 62.1618 5.64C62.5018 5 62.9768 4.51 63.5868 4.17C64.2068 3.82 64.9168 3.645 65.7168 3.645C66.4968 3.645 67.1868 3.815 67.7868 4.155C68.3868 4.495 68.8468 4.965 69.1668 5.565C69.4968 6.155 69.6618 6.825 69.6618 7.575ZM68.2518 7.29C68.2518 6.77 68.1368 6.325 67.9068 5.955C67.6768 5.575 67.3618 5.29 66.9618 5.1C66.5718 4.9 66.1368 4.8 65.6568 4.8C64.9668 4.8 64.3768 5.02 63.8868 5.46C63.4068 5.9 63.1318 6.51 63.0618 7.29H68.2518ZM72.8286 0.9V12H71.4636V0.9H72.8286ZM82.655 7.575C82.655 7.835 82.64 8.11 82.61 8.4H76.04C76.09 9.21 76.365 9.845 76.865 10.305C77.375 10.755 77.99 10.98 78.71 10.98C79.3 10.98 79.79 10.845 80.18 10.575C80.58 10.295 80.86 9.925 81.02 9.465H82.49C82.27 10.255 81.83 10.9 81.17 11.4C80.51 11.89 79.69 12.135 78.71 12.135C77.93 12.135 77.23 11.96 76.61 11.61C76 11.26 75.52 10.765 75.17 10.125C74.82 9.475 74.645 8.725 74.645 7.875C74.645 7.025 74.815 6.28 75.155 5.64C75.495 5 75.97 4.51 76.58 4.17C77.2 3.82 77.91 3.645 78.71 3.645C79.49 3.645 80.18 3.815 80.78 4.155C81.38 4.495 81.84 4.965 82.16 5.565C82.49 6.155 82.655 6.825 82.655 7.575ZM81.245 7.29C81.245 6.77 81.13 6.325 80.9 5.955C80.67 5.575 80.355 5.29 79.955 5.1C79.565 4.9 79.13 4.8 78.65 4.8C77.96 4.8 77.37 5.02 76.88 5.46C76.4 5.9 76.125 6.51 76.055 7.29H81.245ZM87.3668 12.135C86.7368 12.135 86.1718 12.03 85.6718 11.82C85.1718 11.6 84.7768 11.3 84.4868 10.92C84.1968 10.53 84.0368 10.085 84.0068 9.585H85.4168C85.4568 9.995 85.6468 10.33 85.9868 10.59C86.3368 10.85 86.7918 10.98 87.3518 10.98C87.8718 10.98 88.2818 10.865 88.5818 10.635C88.8818 10.405 89.0318 10.115 89.0318 9.765C89.0318 9.405 88.8718 9.14 88.5518 8.97C88.2318 8.79 87.7368 8.615 87.0668 8.445C86.4568 8.285 85.9568 8.125 85.5668 7.965C85.1868 7.795 84.8568 7.55 84.5768 7.23C84.3068 6.9 84.1718 6.47 84.1718 5.94C84.1718 5.52 84.2968 5.135 84.5468 4.785C84.7968 4.435 85.1518 4.16 85.6118 3.96C86.0718 3.75 86.5968 3.645 87.1868 3.645C88.0968 3.645 88.8318 3.875 89.3918 4.335C89.9518 4.795 90.2518 5.425 90.2918 6.225H88.9268C88.8968 5.795 88.7218 5.45 88.4018 5.19C88.0918 4.93 87.6718 4.8 87.1418 4.8C86.6518 4.8 86.2618 4.905 85.9718 5.115C85.6818 5.325 85.5368 5.6 85.5368 5.94C85.5368 6.21 85.6218 6.435 85.7918 6.615C85.9718 6.785 86.1918 6.925 86.4518 7.035C86.7218 7.135 87.0918 7.25 87.5618 7.38C88.1518 7.54 88.6318 7.7 89.0018 7.86C89.3718 8.01 89.6868 8.24 89.9468 8.55C90.2168 8.86 90.3568 9.265 90.3668 9.765C90.3668 10.215 90.2418 10.62 89.9918 10.98C89.7418 11.34 89.3868 11.625 88.9268 11.835C88.4768 12.035 87.9568 12.135 87.3668 12.135Z" fill="#B6B6B6"/>
</svg>
