<svg width="20" height="20" viewBox="0 0 20 20" fill="none" xmlns="http://www.w3.org/2000/svg">
<g clip-path="url(#clip0_199_1688)">
<path d="M18.9961 18.75L13.9961 13.75M8.99609 16.25C8.01118 16.25 7.03591 16.056 6.12597 15.6791C5.21603 15.3022 4.38923 14.7497 3.69279 14.0533C2.99635 13.3569 2.44391 12.5301 2.067 11.6201C1.69009 10.7102 1.49609 9.73491 1.49609 8.75C1.49609 7.76509 1.69009 6.78982 2.067 5.87987C2.44391 4.96993 2.99635 4.14314 3.69279 3.4467C4.38923 2.75026 5.21603 2.19781 6.12597 1.8209C7.03591 1.44399 8.01118 1.25 8.99609 1.25C10.9852 1.25 12.8929 2.04018 14.2994 3.4467C15.7059 4.85322 16.4961 6.76088 16.4961 8.75C16.4961 10.7391 15.7059 12.6468 14.2994 14.0533C12.8929 15.4598 10.9852 16.25 8.99609 16.25Z" stroke="#DDDDDD" stroke-width="1.25"/>
</g>
<defs>
<clipPath id="clip0_199_1688">
<rect width="18.75" height="18.75" fill="white" transform="translate(0.871094 0.625)"/>
</clipPath>
</defs>
</svg>
