<svg width="153" height="45" viewBox="0 0 153 45" fill="none" xmlns="http://www.w3.org/2000/svg">
<path d="M22.2875 11.9125C22.2875 13.5458 21.8938 15.0771 21.1062 16.5062C20.3479 17.9354 19.1375 19.0875 17.475 19.9625C15.8417 20.8375 13.7708 21.275 11.2625 21.275H6.14375V33H0.0187503V2.4625H11.2625C13.625 2.4625 15.6375 2.87083 17.3 3.6875C18.9625 4.50417 20.2021 5.62708 21.0188 7.05625C21.8646 8.48542 22.2875 10.1042 22.2875 11.9125ZM11 16.3312C12.6917 16.3312 13.9458 15.9521 14.7625 15.1937C15.5792 14.4062 15.9875 13.3125 15.9875 11.9125C15.9875 8.9375 14.325 7.45 11 7.45H6.14375V16.3312H11ZM32.7612 0.625V33H26.6362V0.625H32.7612ZM37.2377 20.7937C37.2377 18.3437 37.7189 16.1708 38.6814 14.275C39.6731 12.3792 41.0002 10.9208 42.6627 9.9C44.3544 8.87917 46.2356 8.36875 48.3064 8.36875C50.1148 8.36875 51.6898 8.73333 53.0314 9.4625C54.4023 10.1917 55.496 11.1104 56.3127 12.2187V8.7625H62.4814V33H56.3127V29.4562C55.5252 30.5937 54.4314 31.5417 53.0314 32.3C51.6606 33.0292 50.071 33.3938 48.2627 33.3938C46.221 33.3938 44.3544 32.8688 42.6627 31.8187C41.0002 30.7687 39.6731 29.2958 38.6814 27.4C37.7189 25.475 37.2377 23.2729 37.2377 20.7937ZM56.3127 20.8812C56.3127 19.3937 56.021 18.125 55.4377 17.075C54.8544 15.9958 54.0669 15.1792 53.0752 14.625C52.0835 14.0417 51.0189 13.75 49.8814 13.75C48.7439 13.75 47.6939 14.0271 46.7314 14.5812C45.7689 15.1354 44.9814 15.9521 44.3689 17.0312C43.7856 18.0812 43.4939 19.3354 43.4939 20.7937C43.4939 22.2521 43.7856 23.5354 44.3689 24.6437C44.9814 25.7229 45.7689 26.5542 46.7314 27.1375C47.7231 27.7208 48.7731 28.0125 49.8814 28.0125C51.0189 28.0125 52.0835 27.7354 53.0752 27.1812C54.0669 26.5979 54.8544 25.7812 55.4377 24.7312C56.021 23.6521 56.3127 22.3687 56.3127 20.8812ZM91.6511 8.7625L76.6448 44.4625H70.1261L75.3761 32.3875L65.6636 8.7625H72.5323L78.7886 25.6937L85.1323 8.7625H91.6511ZM109.128 33.3063C106.269 33.3063 103.644 32.6354 101.253 31.2937C98.8612 29.9521 96.9653 28.1 95.5653 25.7375C94.1653 23.3458 93.4653 20.6479 93.4653 17.6437C93.4653 14.6687 94.1653 12 95.5653 9.6375C96.9653 7.24583 98.8612 5.37916 101.253 4.0375C103.644 2.69583 106.269 2.025 109.128 2.025C112.015 2.025 114.64 2.69583 117.003 4.0375C119.394 5.37916 121.276 7.24583 122.647 9.6375C124.047 12 124.747 14.6687 124.747 17.6437C124.747 20.6479 124.047 23.3458 122.647 25.7375C121.276 28.1 119.394 29.9521 117.003 31.2937C114.611 32.6354 111.986 33.3063 109.128 33.3063ZM109.128 27.8375C110.965 27.8375 112.584 27.4292 113.984 26.6125C115.384 25.7667 116.478 24.5708 117.265 23.025C118.053 21.4792 118.447 19.6854 118.447 17.6437C118.447 15.6021 118.053 13.8229 117.265 12.3062C116.478 10.7604 115.384 9.57917 113.984 8.7625C112.584 7.94583 110.965 7.5375 109.128 7.5375C107.29 7.5375 105.657 7.94583 104.228 8.7625C102.828 9.57917 101.734 10.7604 100.947 12.3062C100.159 13.8229 99.7653 15.6021 99.7653 17.6437C99.7653 19.6854 100.159 21.4792 100.947 23.025C101.734 24.5708 102.828 25.7667 104.228 26.6125C105.657 27.4292 107.29 27.8375 109.128 27.8375ZM142.735 8.4125C145.622 8.4125 147.956 9.33125 149.735 11.1687C151.514 12.9771 152.403 15.5146 152.403 18.7812V33H146.278V19.6125C146.278 17.6875 145.797 16.2146 144.835 15.1937C143.872 14.1437 142.56 13.6187 140.897 13.6187C139.206 13.6187 137.864 14.1437 136.872 15.1937C135.91 16.2146 135.428 17.6875 135.428 19.6125V33H129.303V8.7625H135.428V11.7812C136.245 10.7312 137.281 9.91458 138.535 9.33125C139.818 8.71875 141.218 8.4125 142.735 8.4125Z" fill="url(#paint0_radial_199_1681)"/>
<defs>
<radialGradient id="paint0_radial_199_1681" cx="0" cy="0" r="1" gradientUnits="userSpaceOnUse" gradientTransform="translate(153.827 18) rotate(167.329) scale(114.815 230.833)">
<stop stop-color="#FF2C78"/>
<stop offset="1" stop-color="#DCA4FF"/>
</radialGradient>
</defs>
</svg>
