<svg width="40" height="40" viewBox="0 0 40 40" fill="none" xmlns="http://www.w3.org/2000/svg">
<path d="M28.4168 33.8C26.7834 35.3833 25.0001 35.1333 23.2834 34.3833C21.4668 33.6167 19.8001 33.5833 17.8834 34.3833C15.4834 35.4167 14.2168 35.1167 12.7834 33.8C4.65011 25.4167 5.85011 12.65 15.0834 12.1833C17.3334 12.3 18.9001 13.4167 20.2168 13.5167C22.1834 13.1167 24.0668 11.9667 26.1668 12.1167C28.6834 12.3167 30.5834 13.3167 31.8334 15.1167C26.6334 18.2333 27.8668 25.0833 32.6334 27C31.6834 29.5 30.4501 31.9833 28.4001 33.8167L28.4168 33.8ZM20.0501 12.0833C19.8001 8.36667 22.8168 5.3 26.2834 5C26.7668 9.3 22.3834 12.5 20.0501 12.0833Z" fill="#C9C9C9"/>
</svg>
