<svg width="140" height="46" viewBox="0 0 140 46" fill="none" xmlns="http://www.w3.org/2000/svg">
<g filter="url(#filter0_b_199_1664)">
<rect width="140" height="46" rx="6.26043" fill="white" fill-opacity="0.1"/>
</g>
<path d="M44.992 7.636V12.928C44.992 13.672 45.172 14.224 45.532 14.584C45.9 14.944 46.408 15.124 47.056 15.124C47.696 15.124 48.196 14.944 48.556 14.584C48.924 14.224 49.108 13.672 49.108 12.928V7.636H50.2V12.916C50.2 13.612 50.06 14.2 49.78 14.68C49.5 15.152 49.12 15.504 48.64 15.736C48.168 15.968 47.636 16.084 47.044 16.084C46.452 16.084 45.916 15.968 45.436 15.736C44.964 15.504 44.588 15.152 44.308 14.68C44.036 14.2 43.9 13.612 43.9 12.916V7.636H44.992ZM53.1137 10.636C53.3297 10.26 53.6497 9.948 54.0737 9.7C54.5057 9.444 55.0057 9.316 55.5737 9.316C56.1577 9.316 56.6857 9.456 57.1577 9.736C57.6377 10.016 58.0137 10.412 58.2857 10.924C58.5577 11.428 58.6937 12.016 58.6937 12.688C58.6937 13.352 58.5577 13.944 58.2857 14.464C58.0137 14.984 57.6377 15.388 57.1577 15.676C56.6857 15.964 56.1577 16.108 55.5737 16.108C55.0137 16.108 54.5177 15.984 54.0857 15.736C53.6617 15.48 53.3377 15.164 53.1137 14.788V19.12H52.0217V9.424H53.1137V10.636ZM57.5777 12.688C57.5777 12.192 57.4777 11.76 57.2777 11.392C57.0777 11.024 56.8057 10.744 56.4617 10.552C56.1257 10.36 55.7537 10.264 55.3457 10.264C54.9457 10.264 54.5737 10.364 54.2297 10.564C53.8937 10.756 53.6217 11.04 53.4137 11.416C53.2137 11.784 53.1137 12.212 53.1137 12.7C53.1137 13.196 53.2137 13.632 53.4137 14.008C53.6217 14.376 53.8937 14.66 54.2297 14.86C54.5737 15.052 54.9457 15.148 55.3457 15.148C55.7537 15.148 56.1257 15.052 56.4617 14.86C56.8057 14.66 57.0777 14.376 57.2777 14.008C57.4777 13.632 57.5777 13.192 57.5777 12.688ZM61.223 7.12V16H60.131V7.12H61.223ZM65.9522 16.108C65.3362 16.108 64.7762 15.968 64.2722 15.688C63.7762 15.408 63.3842 15.012 63.0962 14.5C62.8162 13.98 62.6762 13.38 62.6762 12.7C62.6762 12.028 62.8202 11.436 63.1082 10.924C63.4042 10.404 63.8042 10.008 64.3082 9.736C64.8122 9.456 65.3762 9.316 66.0002 9.316C66.6242 9.316 67.1882 9.456 67.6922 9.736C68.1962 10.008 68.5922 10.4 68.8802 10.912C69.1762 11.424 69.3242 12.02 69.3242 12.7C69.3242 13.38 69.1722 13.98 68.8682 14.5C68.5722 15.012 68.1682 15.408 67.6562 15.688C67.1442 15.968 66.5762 16.108 65.9522 16.108ZM65.9522 15.148C66.3442 15.148 66.7122 15.056 67.0562 14.872C67.4002 14.688 67.6762 14.412 67.8842 14.044C68.1002 13.676 68.2082 13.228 68.2082 12.7C68.2082 12.172 68.1042 11.724 67.8962 11.356C67.6882 10.988 67.4162 10.716 67.0802 10.54C66.7442 10.356 66.3802 10.264 65.9882 10.264C65.5882 10.264 65.2202 10.356 64.8842 10.54C64.5562 10.716 64.2922 10.988 64.0922 11.356C63.8922 11.724 63.7922 12.172 63.7922 12.7C63.7922 13.236 63.8882 13.688 64.0802 14.056C64.2802 14.424 64.5442 14.7 64.8722 14.884C65.2002 15.06 65.5602 15.148 65.9522 15.148ZM70.3519 12.688C70.3519 12.016 70.4879 11.428 70.7599 10.924C71.0319 10.412 71.4039 10.016 71.8759 9.736C72.3559 9.456 72.8879 9.316 73.4719 9.316C74.0479 9.316 74.5479 9.44 74.9719 9.688C75.3959 9.936 75.7119 10.248 75.9199 10.624V9.424H77.0239V16H75.9199V14.776C75.7039 15.16 75.3799 15.48 74.9479 15.736C74.5239 15.984 74.0279 16.108 73.4599 16.108C72.8759 16.108 72.3479 15.964 71.8759 15.676C71.4039 15.388 71.0319 14.984 70.7599 14.464C70.4879 13.944 70.3519 13.352 70.3519 12.688ZM75.9199 12.7C75.9199 12.204 75.8199 11.772 75.6199 11.404C75.4199 11.036 75.1479 10.756 74.8039 10.564C74.4679 10.364 74.0959 10.264 73.6879 10.264C73.2799 10.264 72.9079 10.36 72.5719 10.552C72.2359 10.744 71.9679 11.024 71.7679 11.392C71.5679 11.76 71.4679 12.192 71.4679 12.688C71.4679 13.192 71.5679 13.632 71.7679 14.008C71.9679 14.376 72.2359 14.66 72.5719 14.86C72.9079 15.052 73.2799 15.148 73.6879 15.148C74.0959 15.148 74.4679 15.052 74.8039 14.86C75.1479 14.66 75.4199 14.376 75.6199 14.008C75.8199 13.632 75.9199 13.196 75.9199 12.7ZM78.4613 12.688C78.4613 12.016 78.5973 11.428 78.8693 10.924C79.1413 10.412 79.5133 10.016 79.9853 9.736C80.4653 9.456 81.0013 9.316 81.5933 9.316C82.1053 9.316 82.5813 9.436 83.0213 9.676C83.4613 9.908 83.7973 10.216 84.0293 10.6V7.12H85.1333V16H84.0293V14.764C83.8133 15.156 83.4933 15.48 83.0693 15.736C82.6453 15.984 82.1493 16.108 81.5813 16.108C80.9973 16.108 80.4653 15.964 79.9853 15.676C79.5133 15.388 79.1413 14.984 78.8693 14.464C78.5973 13.944 78.4613 13.352 78.4613 12.688ZM84.0293 12.7C84.0293 12.204 83.9293 11.772 83.7293 11.404C83.5293 11.036 83.2573 10.756 82.9133 10.564C82.5773 10.364 82.2053 10.264 81.7973 10.264C81.3893 10.264 81.0173 10.36 80.6813 10.552C80.3453 10.744 80.0773 11.024 79.8773 11.392C79.6773 11.76 79.5773 12.192 79.5773 12.688C79.5773 13.192 79.6773 13.632 79.8773 14.008C80.0773 14.376 80.3453 14.66 80.6813 14.86C81.0173 15.052 81.3893 15.148 81.7973 15.148C82.2053 15.148 82.5773 15.052 82.9133 14.86C83.2573 14.66 83.5293 14.376 83.7293 14.008C83.9293 13.632 84.0293 13.196 84.0293 12.7ZM91.5099 10.324V14.2C91.5099 14.52 91.5779 14.748 91.7139 14.884C91.8499 15.012 92.0859 15.076 92.4219 15.076H93.2259V16H92.2419C91.6339 16 91.1779 15.86 90.8739 15.58C90.5699 15.3 90.4179 14.84 90.4179 14.2V10.324H89.5659V9.424H90.4179V7.768H91.5099V9.424H93.2259V10.324H91.5099ZM97.417 16.108C96.801 16.108 96.241 15.968 95.737 15.688C95.241 15.408 94.849 15.012 94.561 14.5C94.281 13.98 94.141 13.38 94.141 12.7C94.141 12.028 94.285 11.436 94.573 10.924C94.869 10.404 95.269 10.008 95.773 9.736C96.277 9.456 96.841 9.316 97.465 9.316C98.089 9.316 98.653 9.456 99.157 9.736C99.661 10.008 100.057 10.4 100.345 10.912C100.641 11.424 100.789 12.02 100.789 12.7C100.789 13.38 100.637 13.98 100.333 14.5C100.037 15.012 99.633 15.408 99.121 15.688C98.609 15.968 98.041 16.108 97.417 16.108ZM97.417 15.148C97.809 15.148 98.177 15.056 98.521 14.872C98.865 14.688 99.141 14.412 99.349 14.044C99.565 13.676 99.673 13.228 99.673 12.7C99.673 12.172 99.569 11.724 99.361 11.356C99.153 10.988 98.881 10.716 98.545 10.54C98.209 10.356 97.845 10.264 97.453 10.264C97.053 10.264 96.685 10.356 96.349 10.54C96.021 10.716 95.757 10.988 95.557 11.356C95.357 11.724 95.257 12.172 95.257 12.7C95.257 13.236 95.353 13.688 95.545 14.056C95.745 14.424 96.009 14.7 96.337 14.884C96.665 15.06 97.025 15.148 97.417 15.148Z" fill="#BDBDBD"/>
<path d="M44.992 7.636V12.928C44.992 13.672 45.172 14.224 45.532 14.584C45.9 14.944 46.408 15.124 47.056 15.124C47.696 15.124 48.196 14.944 48.556 14.584C48.924 14.224 49.108 13.672 49.108 12.928V7.636H50.2V12.916C50.2 13.612 50.06 14.2 49.78 14.68C49.5 15.152 49.12 15.504 48.64 15.736C48.168 15.968 47.636 16.084 47.044 16.084C46.452 16.084 45.916 15.968 45.436 15.736C44.964 15.504 44.588 15.152 44.308 14.68C44.036 14.2 43.9 13.612 43.9 12.916V7.636H44.992ZM53.1137 10.636C53.3297 10.26 53.6497 9.948 54.0737 9.7C54.5057 9.444 55.0057 9.316 55.5737 9.316C56.1577 9.316 56.6857 9.456 57.1577 9.736C57.6377 10.016 58.0137 10.412 58.2857 10.924C58.5577 11.428 58.6937 12.016 58.6937 12.688C58.6937 13.352 58.5577 13.944 58.2857 14.464C58.0137 14.984 57.6377 15.388 57.1577 15.676C56.6857 15.964 56.1577 16.108 55.5737 16.108C55.0137 16.108 54.5177 15.984 54.0857 15.736C53.6617 15.48 53.3377 15.164 53.1137 14.788V19.12H52.0217V9.424H53.1137V10.636ZM57.5777 12.688C57.5777 12.192 57.4777 11.76 57.2777 11.392C57.0777 11.024 56.8057 10.744 56.4617 10.552C56.1257 10.36 55.7537 10.264 55.3457 10.264C54.9457 10.264 54.5737 10.364 54.2297 10.564C53.8937 10.756 53.6217 11.04 53.4137 11.416C53.2137 11.784 53.1137 12.212 53.1137 12.7C53.1137 13.196 53.2137 13.632 53.4137 14.008C53.6217 14.376 53.8937 14.66 54.2297 14.86C54.5737 15.052 54.9457 15.148 55.3457 15.148C55.7537 15.148 56.1257 15.052 56.4617 14.86C56.8057 14.66 57.0777 14.376 57.2777 14.008C57.4777 13.632 57.5777 13.192 57.5777 12.688ZM61.223 7.12V16H60.131V7.12H61.223ZM65.9522 16.108C65.3362 16.108 64.7762 15.968 64.2722 15.688C63.7762 15.408 63.3842 15.012 63.0962 14.5C62.8162 13.98 62.6762 13.38 62.6762 12.7C62.6762 12.028 62.8202 11.436 63.1082 10.924C63.4042 10.404 63.8042 10.008 64.3082 9.736C64.8122 9.456 65.3762 9.316 66.0002 9.316C66.6242 9.316 67.1882 9.456 67.6922 9.736C68.1962 10.008 68.5922 10.4 68.8802 10.912C69.1762 11.424 69.3242 12.02 69.3242 12.7C69.3242 13.38 69.1722 13.98 68.8682 14.5C68.5722 15.012 68.1682 15.408 67.6562 15.688C67.1442 15.968 66.5762 16.108 65.9522 16.108ZM65.9522 15.148C66.3442 15.148 66.7122 15.056 67.0562 14.872C67.4002 14.688 67.6762 14.412 67.8842 14.044C68.1002 13.676 68.2082 13.228 68.2082 12.7C68.2082 12.172 68.1042 11.724 67.8962 11.356C67.6882 10.988 67.4162 10.716 67.0802 10.54C66.7442 10.356 66.3802 10.264 65.9882 10.264C65.5882 10.264 65.2202 10.356 64.8842 10.54C64.5562 10.716 64.2922 10.988 64.0922 11.356C63.8922 11.724 63.7922 12.172 63.7922 12.7C63.7922 13.236 63.8882 13.688 64.0802 14.056C64.2802 14.424 64.5442 14.7 64.8722 14.884C65.2002 15.06 65.5602 15.148 65.9522 15.148ZM70.3519 12.688C70.3519 12.016 70.4879 11.428 70.7599 10.924C71.0319 10.412 71.4039 10.016 71.8759 9.736C72.3559 9.456 72.8879 9.316 73.4719 9.316C74.0479 9.316 74.5479 9.44 74.9719 9.688C75.3959 9.936 75.7119 10.248 75.9199 10.624V9.424H77.0239V16H75.9199V14.776C75.7039 15.16 75.3799 15.48 74.9479 15.736C74.5239 15.984 74.0279 16.108 73.4599 16.108C72.8759 16.108 72.3479 15.964 71.8759 15.676C71.4039 15.388 71.0319 14.984 70.7599 14.464C70.4879 13.944 70.3519 13.352 70.3519 12.688ZM75.9199 12.7C75.9199 12.204 75.8199 11.772 75.6199 11.404C75.4199 11.036 75.1479 10.756 74.8039 10.564C74.4679 10.364 74.0959 10.264 73.6879 10.264C73.2799 10.264 72.9079 10.36 72.5719 10.552C72.2359 10.744 71.9679 11.024 71.7679 11.392C71.5679 11.76 71.4679 12.192 71.4679 12.688C71.4679 13.192 71.5679 13.632 71.7679 14.008C71.9679 14.376 72.2359 14.66 72.5719 14.86C72.9079 15.052 73.2799 15.148 73.6879 15.148C74.0959 15.148 74.4679 15.052 74.8039 14.86C75.1479 14.66 75.4199 14.376 75.6199 14.008C75.8199 13.632 75.9199 13.196 75.9199 12.7ZM78.4613 12.688C78.4613 12.016 78.5973 11.428 78.8693 10.924C79.1413 10.412 79.5133 10.016 79.9853 9.736C80.4653 9.456 81.0013 9.316 81.5933 9.316C82.1053 9.316 82.5813 9.436 83.0213 9.676C83.4613 9.908 83.7973 10.216 84.0293 10.6V7.12H85.1333V16H84.0293V14.764C83.8133 15.156 83.4933 15.48 83.0693 15.736C82.6453 15.984 82.1493 16.108 81.5813 16.108C80.9973 16.108 80.4653 15.964 79.9853 15.676C79.5133 15.388 79.1413 14.984 78.8693 14.464C78.5973 13.944 78.4613 13.352 78.4613 12.688ZM84.0293 12.7C84.0293 12.204 83.9293 11.772 83.7293 11.404C83.5293 11.036 83.2573 10.756 82.9133 10.564C82.5773 10.364 82.2053 10.264 81.7973 10.264C81.3893 10.264 81.0173 10.36 80.6813 10.552C80.3453 10.744 80.0773 11.024 79.8773 11.392C79.6773 11.76 79.5773 12.192 79.5773 12.688C79.5773 13.192 79.6773 13.632 79.8773 14.008C80.0773 14.376 80.3453 14.66 80.6813 14.86C81.0173 15.052 81.3893 15.148 81.7973 15.148C82.2053 15.148 82.5773 15.052 82.9133 14.86C83.2573 14.66 83.5293 14.376 83.7293 14.008C83.9293 13.632 84.0293 13.196 84.0293 12.7ZM91.5099 10.324V14.2C91.5099 14.52 91.5779 14.748 91.7139 14.884C91.8499 15.012 92.0859 15.076 92.4219 15.076H93.2259V16H92.2419C91.6339 16 91.1779 15.86 90.8739 15.58C90.5699 15.3 90.4179 14.84 90.4179 14.2V10.324H89.5659V9.424H90.4179V7.768H91.5099V9.424H93.2259V10.324H91.5099ZM97.417 16.108C96.801 16.108 96.241 15.968 95.737 15.688C95.241 15.408 94.849 15.012 94.561 14.5C94.281 13.98 94.141 13.38 94.141 12.7C94.141 12.028 94.285 11.436 94.573 10.924C94.869 10.404 95.269 10.008 95.773 9.736C96.277 9.456 96.841 9.316 97.465 9.316C98.089 9.316 98.653 9.456 99.157 9.736C99.661 10.008 100.057 10.4 100.345 10.912C100.641 11.424 100.789 12.02 100.789 12.7C100.789 13.38 100.637 13.98 100.333 14.5C100.037 15.012 99.633 15.408 99.121 15.688C98.609 15.968 98.041 16.108 97.417 16.108ZM97.417 15.148C97.809 15.148 98.177 15.056 98.521 14.872C98.865 14.688 99.141 14.412 99.349 14.044C99.565 13.676 99.673 13.228 99.673 12.7C99.673 12.172 99.569 11.724 99.361 11.356C99.153 10.988 98.881 10.716 98.545 10.54C98.209 10.356 97.845 10.264 97.453 10.264C97.053 10.264 96.685 10.356 96.349 10.54C96.021 10.716 95.757 10.988 95.557 11.356C95.357 11.724 95.257 12.172 95.257 12.7C95.257 13.236 95.353 13.688 95.545 14.056C95.745 14.424 96.009 14.7 96.337 14.884C96.665 15.06 97.025 15.148 97.417 15.148Z" fill="#BDBDBD"/>
<path d="M44.992 7.636V12.928C44.992 13.672 45.172 14.224 45.532 14.584C45.9 14.944 46.408 15.124 47.056 15.124C47.696 15.124 48.196 14.944 48.556 14.584C48.924 14.224 49.108 13.672 49.108 12.928V7.636H50.2V12.916C50.2 13.612 50.06 14.2 49.78 14.68C49.5 15.152 49.12 15.504 48.64 15.736C48.168 15.968 47.636 16.084 47.044 16.084C46.452 16.084 45.916 15.968 45.436 15.736C44.964 15.504 44.588 15.152 44.308 14.68C44.036 14.2 43.9 13.612 43.9 12.916V7.636H44.992ZM53.1137 10.636C53.3297 10.26 53.6497 9.948 54.0737 9.7C54.5057 9.444 55.0057 9.316 55.5737 9.316C56.1577 9.316 56.6857 9.456 57.1577 9.736C57.6377 10.016 58.0137 10.412 58.2857 10.924C58.5577 11.428 58.6937 12.016 58.6937 12.688C58.6937 13.352 58.5577 13.944 58.2857 14.464C58.0137 14.984 57.6377 15.388 57.1577 15.676C56.6857 15.964 56.1577 16.108 55.5737 16.108C55.0137 16.108 54.5177 15.984 54.0857 15.736C53.6617 15.48 53.3377 15.164 53.1137 14.788V19.12H52.0217V9.424H53.1137V10.636ZM57.5777 12.688C57.5777 12.192 57.4777 11.76 57.2777 11.392C57.0777 11.024 56.8057 10.744 56.4617 10.552C56.1257 10.36 55.7537 10.264 55.3457 10.264C54.9457 10.264 54.5737 10.364 54.2297 10.564C53.8937 10.756 53.6217 11.04 53.4137 11.416C53.2137 11.784 53.1137 12.212 53.1137 12.7C53.1137 13.196 53.2137 13.632 53.4137 14.008C53.6217 14.376 53.8937 14.66 54.2297 14.86C54.5737 15.052 54.9457 15.148 55.3457 15.148C55.7537 15.148 56.1257 15.052 56.4617 14.86C56.8057 14.66 57.0777 14.376 57.2777 14.008C57.4777 13.632 57.5777 13.192 57.5777 12.688ZM61.223 7.12V16H60.131V7.12H61.223ZM65.9522 16.108C65.3362 16.108 64.7762 15.968 64.2722 15.688C63.7762 15.408 63.3842 15.012 63.0962 14.5C62.8162 13.98 62.6762 13.38 62.6762 12.7C62.6762 12.028 62.8202 11.436 63.1082 10.924C63.4042 10.404 63.8042 10.008 64.3082 9.736C64.8122 9.456 65.3762 9.316 66.0002 9.316C66.6242 9.316 67.1882 9.456 67.6922 9.736C68.1962 10.008 68.5922 10.4 68.8802 10.912C69.1762 11.424 69.3242 12.02 69.3242 12.7C69.3242 13.38 69.1722 13.98 68.8682 14.5C68.5722 15.012 68.1682 15.408 67.6562 15.688C67.1442 15.968 66.5762 16.108 65.9522 16.108ZM65.9522 15.148C66.3442 15.148 66.7122 15.056 67.0562 14.872C67.4002 14.688 67.6762 14.412 67.8842 14.044C68.1002 13.676 68.2082 13.228 68.2082 12.7C68.2082 12.172 68.1042 11.724 67.8962 11.356C67.6882 10.988 67.4162 10.716 67.0802 10.54C66.7442 10.356 66.3802 10.264 65.9882 10.264C65.5882 10.264 65.2202 10.356 64.8842 10.54C64.5562 10.716 64.2922 10.988 64.0922 11.356C63.8922 11.724 63.7922 12.172 63.7922 12.7C63.7922 13.236 63.8882 13.688 64.0802 14.056C64.2802 14.424 64.5442 14.7 64.8722 14.884C65.2002 15.06 65.5602 15.148 65.9522 15.148ZM70.3519 12.688C70.3519 12.016 70.4879 11.428 70.7599 10.924C71.0319 10.412 71.4039 10.016 71.8759 9.736C72.3559 9.456 72.8879 9.316 73.4719 9.316C74.0479 9.316 74.5479 9.44 74.9719 9.688C75.3959 9.936 75.7119 10.248 75.9199 10.624V9.424H77.0239V16H75.9199V14.776C75.7039 15.16 75.3799 15.48 74.9479 15.736C74.5239 15.984 74.0279 16.108 73.4599 16.108C72.8759 16.108 72.3479 15.964 71.8759 15.676C71.4039 15.388 71.0319 14.984 70.7599 14.464C70.4879 13.944 70.3519 13.352 70.3519 12.688ZM75.9199 12.7C75.9199 12.204 75.8199 11.772 75.6199 11.404C75.4199 11.036 75.1479 10.756 74.8039 10.564C74.4679 10.364 74.0959 10.264 73.6879 10.264C73.2799 10.264 72.9079 10.36 72.5719 10.552C72.2359 10.744 71.9679 11.024 71.7679 11.392C71.5679 11.76 71.4679 12.192 71.4679 12.688C71.4679 13.192 71.5679 13.632 71.7679 14.008C71.9679 14.376 72.2359 14.66 72.5719 14.86C72.9079 15.052 73.2799 15.148 73.6879 15.148C74.0959 15.148 74.4679 15.052 74.8039 14.86C75.1479 14.66 75.4199 14.376 75.6199 14.008C75.8199 13.632 75.9199 13.196 75.9199 12.7ZM78.4613 12.688C78.4613 12.016 78.5973 11.428 78.8693 10.924C79.1413 10.412 79.5133 10.016 79.9853 9.736C80.4653 9.456 81.0013 9.316 81.5933 9.316C82.1053 9.316 82.5813 9.436 83.0213 9.676C83.4613 9.908 83.7973 10.216 84.0293 10.6V7.12H85.1333V16H84.0293V14.764C83.8133 15.156 83.4933 15.48 83.0693 15.736C82.6453 15.984 82.1493 16.108 81.5813 16.108C80.9973 16.108 80.4653 15.964 79.9853 15.676C79.5133 15.388 79.1413 14.984 78.8693 14.464C78.5973 13.944 78.4613 13.352 78.4613 12.688ZM84.0293 12.7C84.0293 12.204 83.9293 11.772 83.7293 11.404C83.5293 11.036 83.2573 10.756 82.9133 10.564C82.5773 10.364 82.2053 10.264 81.7973 10.264C81.3893 10.264 81.0173 10.36 80.6813 10.552C80.3453 10.744 80.0773 11.024 79.8773 11.392C79.6773 11.76 79.5773 12.192 79.5773 12.688C79.5773 13.192 79.6773 13.632 79.8773 14.008C80.0773 14.376 80.3453 14.66 80.6813 14.86C81.0173 15.052 81.3893 15.148 81.7973 15.148C82.2053 15.148 82.5773 15.052 82.9133 14.86C83.2573 14.66 83.5293 14.376 83.7293 14.008C83.9293 13.632 84.0293 13.196 84.0293 12.7ZM91.5099 10.324V14.2C91.5099 14.52 91.5779 14.748 91.7139 14.884C91.8499 15.012 92.0859 15.076 92.4219 15.076H93.2259V16H92.2419C91.6339 16 91.1779 15.86 90.8739 15.58C90.5699 15.3 90.4179 14.84 90.4179 14.2V10.324H89.5659V9.424H90.4179V7.768H91.5099V9.424H93.2259V10.324H91.5099ZM97.417 16.108C96.801 16.108 96.241 15.968 95.737 15.688C95.241 15.408 94.849 15.012 94.561 14.5C94.281 13.98 94.141 13.38 94.141 12.7C94.141 12.028 94.285 11.436 94.573 10.924C94.869 10.404 95.269 10.008 95.773 9.736C96.277 9.456 96.841 9.316 97.465 9.316C98.089 9.316 98.653 9.456 99.157 9.736C99.661 10.008 100.057 10.4 100.345 10.912C100.641 11.424 100.789 12.02 100.789 12.7C100.789 13.38 100.637 13.98 100.333 14.5C100.037 15.012 99.633 15.408 99.121 15.688C98.609 15.968 98.041 16.108 97.417 16.108ZM97.417 15.148C97.809 15.148 98.177 15.056 98.521 14.872C98.865 14.688 99.141 14.412 99.349 14.044C99.565 13.676 99.673 13.228 99.673 12.7C99.673 12.172 99.569 11.724 99.361 11.356C99.153 10.988 98.881 10.716 98.545 10.54C98.209 10.356 97.845 10.264 97.453 10.264C97.053 10.264 96.685 10.356 96.349 10.54C96.021 10.716 95.757 10.988 95.557 11.356C95.357 11.724 95.257 12.172 95.257 12.7C95.257 13.236 95.353 13.688 95.545 14.056C95.745 14.424 96.009 14.7 96.337 14.884C96.665 15.06 97.025 15.148 97.417 15.148Z" fill="#BDBDBD"/>
<path d="M44.992 7.636V12.928C44.992 13.672 45.172 14.224 45.532 14.584C45.9 14.944 46.408 15.124 47.056 15.124C47.696 15.124 48.196 14.944 48.556 14.584C48.924 14.224 49.108 13.672 49.108 12.928V7.636H50.2V12.916C50.2 13.612 50.06 14.2 49.78 14.68C49.5 15.152 49.12 15.504 48.64 15.736C48.168 15.968 47.636 16.084 47.044 16.084C46.452 16.084 45.916 15.968 45.436 15.736C44.964 15.504 44.588 15.152 44.308 14.68C44.036 14.2 43.9 13.612 43.9 12.916V7.636H44.992ZM53.1137 10.636C53.3297 10.26 53.6497 9.948 54.0737 9.7C54.5057 9.444 55.0057 9.316 55.5737 9.316C56.1577 9.316 56.6857 9.456 57.1577 9.736C57.6377 10.016 58.0137 10.412 58.2857 10.924C58.5577 11.428 58.6937 12.016 58.6937 12.688C58.6937 13.352 58.5577 13.944 58.2857 14.464C58.0137 14.984 57.6377 15.388 57.1577 15.676C56.6857 15.964 56.1577 16.108 55.5737 16.108C55.0137 16.108 54.5177 15.984 54.0857 15.736C53.6617 15.48 53.3377 15.164 53.1137 14.788V19.12H52.0217V9.424H53.1137V10.636ZM57.5777 12.688C57.5777 12.192 57.4777 11.76 57.2777 11.392C57.0777 11.024 56.8057 10.744 56.4617 10.552C56.1257 10.36 55.7537 10.264 55.3457 10.264C54.9457 10.264 54.5737 10.364 54.2297 10.564C53.8937 10.756 53.6217 11.04 53.4137 11.416C53.2137 11.784 53.1137 12.212 53.1137 12.7C53.1137 13.196 53.2137 13.632 53.4137 14.008C53.6217 14.376 53.8937 14.66 54.2297 14.86C54.5737 15.052 54.9457 15.148 55.3457 15.148C55.7537 15.148 56.1257 15.052 56.4617 14.86C56.8057 14.66 57.0777 14.376 57.2777 14.008C57.4777 13.632 57.5777 13.192 57.5777 12.688ZM61.223 7.12V16H60.131V7.12H61.223ZM65.9522 16.108C65.3362 16.108 64.7762 15.968 64.2722 15.688C63.7762 15.408 63.3842 15.012 63.0962 14.5C62.8162 13.98 62.6762 13.38 62.6762 12.7C62.6762 12.028 62.8202 11.436 63.1082 10.924C63.4042 10.404 63.8042 10.008 64.3082 9.736C64.8122 9.456 65.3762 9.316 66.0002 9.316C66.6242 9.316 67.1882 9.456 67.6922 9.736C68.1962 10.008 68.5922 10.4 68.8802 10.912C69.1762 11.424 69.3242 12.02 69.3242 12.7C69.3242 13.38 69.1722 13.98 68.8682 14.5C68.5722 15.012 68.1682 15.408 67.6562 15.688C67.1442 15.968 66.5762 16.108 65.9522 16.108ZM65.9522 15.148C66.3442 15.148 66.7122 15.056 67.0562 14.872C67.4002 14.688 67.6762 14.412 67.8842 14.044C68.1002 13.676 68.2082 13.228 68.2082 12.7C68.2082 12.172 68.1042 11.724 67.8962 11.356C67.6882 10.988 67.4162 10.716 67.0802 10.54C66.7442 10.356 66.3802 10.264 65.9882 10.264C65.5882 10.264 65.2202 10.356 64.8842 10.54C64.5562 10.716 64.2922 10.988 64.0922 11.356C63.8922 11.724 63.7922 12.172 63.7922 12.7C63.7922 13.236 63.8882 13.688 64.0802 14.056C64.2802 14.424 64.5442 14.7 64.8722 14.884C65.2002 15.06 65.5602 15.148 65.9522 15.148ZM70.3519 12.688C70.3519 12.016 70.4879 11.428 70.7599 10.924C71.0319 10.412 71.4039 10.016 71.8759 9.736C72.3559 9.456 72.8879 9.316 73.4719 9.316C74.0479 9.316 74.5479 9.44 74.9719 9.688C75.3959 9.936 75.7119 10.248 75.9199 10.624V9.424H77.0239V16H75.9199V14.776C75.7039 15.16 75.3799 15.48 74.9479 15.736C74.5239 15.984 74.0279 16.108 73.4599 16.108C72.8759 16.108 72.3479 15.964 71.8759 15.676C71.4039 15.388 71.0319 14.984 70.7599 14.464C70.4879 13.944 70.3519 13.352 70.3519 12.688ZM75.9199 12.7C75.9199 12.204 75.8199 11.772 75.6199 11.404C75.4199 11.036 75.1479 10.756 74.8039 10.564C74.4679 10.364 74.0959 10.264 73.6879 10.264C73.2799 10.264 72.9079 10.36 72.5719 10.552C72.2359 10.744 71.9679 11.024 71.7679 11.392C71.5679 11.76 71.4679 12.192 71.4679 12.688C71.4679 13.192 71.5679 13.632 71.7679 14.008C71.9679 14.376 72.2359 14.66 72.5719 14.86C72.9079 15.052 73.2799 15.148 73.6879 15.148C74.0959 15.148 74.4679 15.052 74.8039 14.86C75.1479 14.66 75.4199 14.376 75.6199 14.008C75.8199 13.632 75.9199 13.196 75.9199 12.7ZM78.4613 12.688C78.4613 12.016 78.5973 11.428 78.8693 10.924C79.1413 10.412 79.5133 10.016 79.9853 9.736C80.4653 9.456 81.0013 9.316 81.5933 9.316C82.1053 9.316 82.5813 9.436 83.0213 9.676C83.4613 9.908 83.7973 10.216 84.0293 10.6V7.12H85.1333V16H84.0293V14.764C83.8133 15.156 83.4933 15.48 83.0693 15.736C82.6453 15.984 82.1493 16.108 81.5813 16.108C80.9973 16.108 80.4653 15.964 79.9853 15.676C79.5133 15.388 79.1413 14.984 78.8693 14.464C78.5973 13.944 78.4613 13.352 78.4613 12.688ZM84.0293 12.7C84.0293 12.204 83.9293 11.772 83.7293 11.404C83.5293 11.036 83.2573 10.756 82.9133 10.564C82.5773 10.364 82.2053 10.264 81.7973 10.264C81.3893 10.264 81.0173 10.36 80.6813 10.552C80.3453 10.744 80.0773 11.024 79.8773 11.392C79.6773 11.76 79.5773 12.192 79.5773 12.688C79.5773 13.192 79.6773 13.632 79.8773 14.008C80.0773 14.376 80.3453 14.66 80.6813 14.86C81.0173 15.052 81.3893 15.148 81.7973 15.148C82.2053 15.148 82.5773 15.052 82.9133 14.86C83.2573 14.66 83.5293 14.376 83.7293 14.008C83.9293 13.632 84.0293 13.196 84.0293 12.7ZM91.5099 10.324V14.2C91.5099 14.52 91.5779 14.748 91.7139 14.884C91.8499 15.012 92.0859 15.076 92.4219 15.076H93.2259V16H92.2419C91.6339 16 91.1779 15.86 90.8739 15.58C90.5699 15.3 90.4179 14.84 90.4179 14.2V10.324H89.5659V9.424H90.4179V7.768H91.5099V9.424H93.2259V10.324H91.5099ZM97.417 16.108C96.801 16.108 96.241 15.968 95.737 15.688C95.241 15.408 94.849 15.012 94.561 14.5C94.281 13.98 94.141 13.38 94.141 12.7C94.141 12.028 94.285 11.436 94.573 10.924C94.869 10.404 95.269 10.008 95.773 9.736C96.277 9.456 96.841 9.316 97.465 9.316C98.089 9.316 98.653 9.456 99.157 9.736C99.661 10.008 100.057 10.4 100.345 10.912C100.641 11.424 100.789 12.02 100.789 12.7C100.789 13.38 100.637 13.98 100.333 14.5C100.037 15.012 99.633 15.408 99.121 15.688C98.609 15.968 98.041 16.108 97.417 16.108ZM97.417 15.148C97.809 15.148 98.177 15.056 98.521 14.872C98.865 14.688 99.141 14.412 99.349 14.044C99.565 13.676 99.673 13.228 99.673 12.7C99.673 12.172 99.569 11.724 99.361 11.356C99.153 10.988 98.881 10.716 98.545 10.54C98.209 10.356 97.845 10.264 97.453 10.264C97.053 10.264 96.685 10.356 96.349 10.54C96.021 10.716 95.757 10.988 95.557 11.356C95.357 11.724 95.257 12.172 95.257 12.7C95.257 13.236 95.353 13.688 95.545 14.056C95.745 14.424 96.009 14.7 96.337 14.884C96.665 15.06 97.025 15.148 97.417 15.148Z" fill="#BDBDBD"/>
<path d="M44.992 7.636V12.928C44.992 13.672 45.172 14.224 45.532 14.584C45.9 14.944 46.408 15.124 47.056 15.124C47.696 15.124 48.196 14.944 48.556 14.584C48.924 14.224 49.108 13.672 49.108 12.928V7.636H50.2V12.916C50.2 13.612 50.06 14.2 49.78 14.68C49.5 15.152 49.12 15.504 48.64 15.736C48.168 15.968 47.636 16.084 47.044 16.084C46.452 16.084 45.916 15.968 45.436 15.736C44.964 15.504 44.588 15.152 44.308 14.68C44.036 14.2 43.9 13.612 43.9 12.916V7.636H44.992ZM53.1137 10.636C53.3297 10.26 53.6497 9.948 54.0737 9.7C54.5057 9.444 55.0057 9.316 55.5737 9.316C56.1577 9.316 56.6857 9.456 57.1577 9.736C57.6377 10.016 58.0137 10.412 58.2857 10.924C58.5577 11.428 58.6937 12.016 58.6937 12.688C58.6937 13.352 58.5577 13.944 58.2857 14.464C58.0137 14.984 57.6377 15.388 57.1577 15.676C56.6857 15.964 56.1577 16.108 55.5737 16.108C55.0137 16.108 54.5177 15.984 54.0857 15.736C53.6617 15.48 53.3377 15.164 53.1137 14.788V19.12H52.0217V9.424H53.1137V10.636ZM57.5777 12.688C57.5777 12.192 57.4777 11.76 57.2777 11.392C57.0777 11.024 56.8057 10.744 56.4617 10.552C56.1257 10.36 55.7537 10.264 55.3457 10.264C54.9457 10.264 54.5737 10.364 54.2297 10.564C53.8937 10.756 53.6217 11.04 53.4137 11.416C53.2137 11.784 53.1137 12.212 53.1137 12.7C53.1137 13.196 53.2137 13.632 53.4137 14.008C53.6217 14.376 53.8937 14.66 54.2297 14.86C54.5737 15.052 54.9457 15.148 55.3457 15.148C55.7537 15.148 56.1257 15.052 56.4617 14.86C56.8057 14.66 57.0777 14.376 57.2777 14.008C57.4777 13.632 57.5777 13.192 57.5777 12.688ZM61.223 7.12V16H60.131V7.12H61.223ZM65.9522 16.108C65.3362 16.108 64.7762 15.968 64.2722 15.688C63.7762 15.408 63.3842 15.012 63.0962 14.5C62.8162 13.98 62.6762 13.38 62.6762 12.7C62.6762 12.028 62.8202 11.436 63.1082 10.924C63.4042 10.404 63.8042 10.008 64.3082 9.736C64.8122 9.456 65.3762 9.316 66.0002 9.316C66.6242 9.316 67.1882 9.456 67.6922 9.736C68.1962 10.008 68.5922 10.4 68.8802 10.912C69.1762 11.424 69.3242 12.02 69.3242 12.7C69.3242 13.38 69.1722 13.98 68.8682 14.5C68.5722 15.012 68.1682 15.408 67.6562 15.688C67.1442 15.968 66.5762 16.108 65.9522 16.108ZM65.9522 15.148C66.3442 15.148 66.7122 15.056 67.0562 14.872C67.4002 14.688 67.6762 14.412 67.8842 14.044C68.1002 13.676 68.2082 13.228 68.2082 12.7C68.2082 12.172 68.1042 11.724 67.8962 11.356C67.6882 10.988 67.4162 10.716 67.0802 10.54C66.7442 10.356 66.3802 10.264 65.9882 10.264C65.5882 10.264 65.2202 10.356 64.8842 10.54C64.5562 10.716 64.2922 10.988 64.0922 11.356C63.8922 11.724 63.7922 12.172 63.7922 12.7C63.7922 13.236 63.8882 13.688 64.0802 14.056C64.2802 14.424 64.5442 14.7 64.8722 14.884C65.2002 15.06 65.5602 15.148 65.9522 15.148ZM70.3519 12.688C70.3519 12.016 70.4879 11.428 70.7599 10.924C71.0319 10.412 71.4039 10.016 71.8759 9.736C72.3559 9.456 72.8879 9.316 73.4719 9.316C74.0479 9.316 74.5479 9.44 74.9719 9.688C75.3959 9.936 75.7119 10.248 75.9199 10.624V9.424H77.0239V16H75.9199V14.776C75.7039 15.16 75.3799 15.48 74.9479 15.736C74.5239 15.984 74.0279 16.108 73.4599 16.108C72.8759 16.108 72.3479 15.964 71.8759 15.676C71.4039 15.388 71.0319 14.984 70.7599 14.464C70.4879 13.944 70.3519 13.352 70.3519 12.688ZM75.9199 12.7C75.9199 12.204 75.8199 11.772 75.6199 11.404C75.4199 11.036 75.1479 10.756 74.8039 10.564C74.4679 10.364 74.0959 10.264 73.6879 10.264C73.2799 10.264 72.9079 10.36 72.5719 10.552C72.2359 10.744 71.9679 11.024 71.7679 11.392C71.5679 11.76 71.4679 12.192 71.4679 12.688C71.4679 13.192 71.5679 13.632 71.7679 14.008C71.9679 14.376 72.2359 14.66 72.5719 14.86C72.9079 15.052 73.2799 15.148 73.6879 15.148C74.0959 15.148 74.4679 15.052 74.8039 14.86C75.1479 14.66 75.4199 14.376 75.6199 14.008C75.8199 13.632 75.9199 13.196 75.9199 12.7ZM78.4613 12.688C78.4613 12.016 78.5973 11.428 78.8693 10.924C79.1413 10.412 79.5133 10.016 79.9853 9.736C80.4653 9.456 81.0013 9.316 81.5933 9.316C82.1053 9.316 82.5813 9.436 83.0213 9.676C83.4613 9.908 83.7973 10.216 84.0293 10.6V7.12H85.1333V16H84.0293V14.764C83.8133 15.156 83.4933 15.48 83.0693 15.736C82.6453 15.984 82.1493 16.108 81.5813 16.108C80.9973 16.108 80.4653 15.964 79.9853 15.676C79.5133 15.388 79.1413 14.984 78.8693 14.464C78.5973 13.944 78.4613 13.352 78.4613 12.688ZM84.0293 12.7C84.0293 12.204 83.9293 11.772 83.7293 11.404C83.5293 11.036 83.2573 10.756 82.9133 10.564C82.5773 10.364 82.2053 10.264 81.7973 10.264C81.3893 10.264 81.0173 10.36 80.6813 10.552C80.3453 10.744 80.0773 11.024 79.8773 11.392C79.6773 11.76 79.5773 12.192 79.5773 12.688C79.5773 13.192 79.6773 13.632 79.8773 14.008C80.0773 14.376 80.3453 14.66 80.6813 14.86C81.0173 15.052 81.3893 15.148 81.7973 15.148C82.2053 15.148 82.5773 15.052 82.9133 14.86C83.2573 14.66 83.5293 14.376 83.7293 14.008C83.9293 13.632 84.0293 13.196 84.0293 12.7ZM91.5099 10.324V14.2C91.5099 14.52 91.5779 14.748 91.7139 14.884C91.8499 15.012 92.0859 15.076 92.4219 15.076H93.2259V16H92.2419C91.6339 16 91.1779 15.86 90.8739 15.58C90.5699 15.3 90.4179 14.84 90.4179 14.2V10.324H89.5659V9.424H90.4179V7.768H91.5099V9.424H93.2259V10.324H91.5099ZM97.417 16.108C96.801 16.108 96.241 15.968 95.737 15.688C95.241 15.408 94.849 15.012 94.561 14.5C94.281 13.98 94.141 13.38 94.141 12.7C94.141 12.028 94.285 11.436 94.573 10.924C94.869 10.404 95.269 10.008 95.773 9.736C96.277 9.456 96.841 9.316 97.465 9.316C98.089 9.316 98.653 9.456 99.157 9.736C99.661 10.008 100.057 10.4 100.345 10.912C100.641 11.424 100.789 12.02 100.789 12.7C100.789 13.38 100.637 13.98 100.333 14.5C100.037 15.012 99.633 15.408 99.121 15.688C98.609 15.968 98.041 16.108 97.417 16.108ZM97.417 15.148C97.809 15.148 98.177 15.056 98.521 14.872C98.865 14.688 99.141 14.412 99.349 14.044C99.565 13.676 99.673 13.228 99.673 12.7C99.673 12.172 99.569 11.724 99.361 11.356C99.153 10.988 98.881 10.716 98.545 10.54C98.209 10.356 97.845 10.264 97.453 10.264C97.053 10.264 96.685 10.356 96.349 10.54C96.021 10.716 95.757 10.988 95.557 11.356C95.357 11.724 95.257 12.172 95.257 12.7C95.257 13.236 95.353 13.688 95.545 14.056C95.745 14.424 96.009 14.7 96.337 14.884C96.665 15.06 97.025 15.148 97.417 15.148Z" fill="#BDBDBD"/>
<path d="M52.075 24.575C51.785 23.965 51.365 23.495 50.815 23.165C50.265 22.825 49.625 22.655 48.895 22.655C48.165 22.655 47.505 22.825 46.915 23.165C46.335 23.495 45.875 23.975 45.535 24.605C45.205 25.225 45.04 25.945 45.04 26.765C45.04 27.585 45.205 28.305 45.535 28.925C45.875 29.545 46.335 30.025 46.915 30.365C47.505 30.695 48.165 30.86 48.895 30.86C49.915 30.86 50.755 30.555 51.415 29.945C52.075 29.335 52.46 28.51 52.57 27.47H48.4V26.36H54.025V27.41C53.945 28.27 53.675 29.06 53.215 29.78C52.755 30.49 52.15 31.055 51.4 31.475C50.65 31.885 49.815 32.09 48.895 32.09C47.925 32.09 47.04 31.865 46.24 31.415C45.44 30.955 44.805 30.32 44.335 29.51C43.875 28.7 43.645 27.785 43.645 26.765C43.645 25.745 43.875 24.83 44.335 24.02C44.805 23.2 45.44 22.565 46.24 22.115C47.04 21.655 47.925 21.425 48.895 21.425C50.005 21.425 50.985 21.7 51.835 22.25C52.695 22.8 53.32 23.575 53.71 24.575H52.075ZM59.4148 32.135C58.6448 32.135 57.9448 31.96 57.3148 31.61C56.6948 31.26 56.2048 30.765 55.8448 30.125C55.4948 29.475 55.3198 28.725 55.3198 27.875C55.3198 27.035 55.4998 26.295 55.8598 25.655C56.2298 25.005 56.7298 24.51 57.3598 24.17C57.9898 23.82 58.6948 23.645 59.4748 23.645C60.2548 23.645 60.9598 23.82 61.5898 24.17C62.2198 24.51 62.7148 25 63.0748 25.64C63.4448 26.28 63.6298 27.025 63.6298 27.875C63.6298 28.725 63.4398 29.475 63.0598 30.125C62.6898 30.765 62.1848 31.26 61.5448 31.61C60.9048 31.96 60.1948 32.135 59.4148 32.135ZM59.4148 30.935C59.9048 30.935 60.3648 30.82 60.7948 30.59C61.2248 30.36 61.5698 30.015 61.8298 29.555C62.0998 29.095 62.2348 28.535 62.2348 27.875C62.2348 27.215 62.1048 26.655 61.8448 26.195C61.5848 25.735 61.2448 25.395 60.8248 25.175C60.4048 24.945 59.9498 24.83 59.4598 24.83C58.9598 24.83 58.4998 24.945 58.0798 25.175C57.6698 25.395 57.3398 25.735 57.0898 26.195C56.8398 26.655 56.7148 27.215 56.7148 27.875C56.7148 28.545 56.8348 29.11 57.0748 29.57C57.3248 30.03 57.6548 30.375 58.0648 30.605C58.4748 30.825 58.9248 30.935 59.4148 30.935ZM69.0095 32.135C68.2395 32.135 67.5395 31.96 66.9095 31.61C66.2895 31.26 65.7995 30.765 65.4395 30.125C65.0895 29.475 64.9145 28.725 64.9145 27.875C64.9145 27.035 65.0945 26.295 65.4545 25.655C65.8245 25.005 66.3245 24.51 66.9545 24.17C67.5845 23.82 68.2895 23.645 69.0695 23.645C69.8495 23.645 70.5545 23.82 71.1845 24.17C71.8145 24.51 72.3095 25 72.6695 25.64C73.0395 26.28 73.2245 27.025 73.2245 27.875C73.2245 28.725 73.0345 29.475 72.6545 30.125C72.2845 30.765 71.7795 31.26 71.1395 31.61C70.4995 31.96 69.7895 32.135 69.0095 32.135ZM69.0095 30.935C69.4995 30.935 69.9595 30.82 70.3895 30.59C70.8195 30.36 71.1645 30.015 71.4245 29.555C71.6945 29.095 71.8295 28.535 71.8295 27.875C71.8295 27.215 71.6995 26.655 71.4395 26.195C71.1795 25.735 70.8395 25.395 70.4195 25.175C69.9995 24.945 69.5445 24.83 69.0545 24.83C68.5545 24.83 68.0945 24.945 67.6745 25.175C67.2645 25.395 66.9345 25.735 66.6845 26.195C66.4345 26.655 66.3095 27.215 66.3095 27.875C66.3095 28.545 66.4295 29.11 66.6695 29.57C66.9195 30.03 67.2495 30.375 67.6595 30.605C68.0695 30.825 68.5195 30.935 69.0095 30.935ZM78.4093 23.645C79.1193 23.645 79.7393 23.8 80.2693 24.11C80.8093 24.42 81.2093 24.81 81.4693 25.28V23.78H82.8493V32.18C82.8493 32.93 82.6893 33.595 82.3693 34.175C82.0493 34.765 81.5893 35.225 80.9893 35.555C80.3993 35.885 79.7093 36.05 78.9193 36.05C77.8393 36.05 76.9393 35.795 76.2193 35.285C75.4993 34.775 75.0743 34.08 74.9443 33.2H76.2943C76.4443 33.7 76.7543 34.1 77.2243 34.4C77.6943 34.71 78.2593 34.865 78.9193 34.865C79.6693 34.865 80.2793 34.63 80.7493 34.16C81.2293 33.69 81.4693 33.03 81.4693 32.18V30.455C81.1993 30.935 80.7993 31.335 80.2693 31.655C79.7393 31.975 79.1193 32.135 78.4093 32.135C77.6793 32.135 77.0143 31.955 76.4143 31.595C75.8243 31.235 75.3593 30.73 75.0193 30.08C74.6793 29.43 74.5093 28.69 74.5093 27.86C74.5093 27.02 74.6793 26.285 75.0193 25.655C75.3593 25.015 75.8243 24.52 76.4143 24.17C77.0143 23.82 77.6793 23.645 78.4093 23.645ZM81.4693 27.875C81.4693 27.255 81.3443 26.715 81.0943 26.255C80.8443 25.795 80.5043 25.445 80.0743 25.205C79.6543 24.955 79.1893 24.83 78.6793 24.83C78.1693 24.83 77.7043 24.95 77.2843 25.19C76.8643 25.43 76.5293 25.78 76.2793 26.24C76.0293 26.7 75.9043 27.24 75.9043 27.86C75.9043 28.49 76.0293 29.04 76.2793 29.51C76.5293 29.97 76.8643 30.325 77.2843 30.575C77.7043 30.815 78.1693 30.935 78.6793 30.935C79.1893 30.935 79.6543 30.815 80.0743 30.575C80.5043 30.325 80.8443 29.97 81.0943 29.51C81.3443 29.04 81.4693 28.495 81.4693 27.875ZM86.521 20.9V32H85.156V20.9H86.521ZM96.3474 27.575C96.3474 27.835 96.3324 28.11 96.3024 28.4H89.7324C89.7824 29.21 90.0574 29.845 90.5574 30.305C91.0674 30.755 91.6824 30.98 92.4024 30.98C92.9924 30.98 93.4824 30.845 93.8724 30.575C94.2724 30.295 94.5524 29.925 94.7124 29.465H96.1824C95.9624 30.255 95.5224 30.9 94.8624 31.4C94.2024 31.89 93.3824 32.135 92.4024 32.135C91.6224 32.135 90.9224 31.96 90.3024 31.61C89.6924 31.26 89.2124 30.765 88.8624 30.125C88.5124 29.475 88.3374 28.725 88.3374 27.875C88.3374 27.025 88.5074 26.28 88.8474 25.64C89.1874 25 89.6624 24.51 90.2724 24.17C90.8924 23.82 91.6024 23.645 92.4024 23.645C93.1824 23.645 93.8724 23.815 94.4724 24.155C95.0724 24.495 95.5324 24.965 95.8524 25.565C96.1824 26.155 96.3474 26.825 96.3474 27.575ZM94.9374 27.29C94.9374 26.77 94.8224 26.325 94.5924 25.955C94.3624 25.575 94.0474 25.29 93.6474 25.1C93.2574 24.9 92.8224 24.8 92.3424 24.8C91.6524 24.8 91.0624 25.02 90.5724 25.46C90.0924 25.9 89.8174 26.51 89.7474 27.29H94.9374ZM109.138 24.605C109.138 25.475 108.838 26.2 108.238 26.78C107.648 27.35 106.743 27.635 105.523 27.635H103.513V32H102.148V21.545H105.523C106.703 21.545 107.598 21.83 108.208 22.4C108.828 22.97 109.138 23.705 109.138 24.605ZM105.523 26.51C106.283 26.51 106.843 26.345 107.203 26.015C107.563 25.685 107.743 25.215 107.743 24.605C107.743 23.315 107.003 22.67 105.523 22.67H103.513V26.51H105.523ZM112.2 20.9V32H110.835V20.9H112.2ZM114.016 27.86C114.016 27.02 114.186 26.285 114.526 25.655C114.866 25.015 115.331 24.52 115.921 24.17C116.521 23.82 117.186 23.645 117.916 23.645C118.636 23.645 119.261 23.8 119.791 24.11C120.321 24.42 120.716 24.81 120.976 25.28V23.78H122.356V32H120.976V30.47C120.706 30.95 120.301 31.35 119.761 31.67C119.231 31.98 118.611 32.135 117.901 32.135C117.171 32.135 116.511 31.955 115.921 31.595C115.331 31.235 114.866 30.73 114.526 30.08C114.186 29.43 114.016 28.69 114.016 27.86ZM120.976 27.875C120.976 27.255 120.851 26.715 120.601 26.255C120.351 25.795 120.011 25.445 119.581 25.205C119.161 24.955 118.696 24.83 118.186 24.83C117.676 24.83 117.211 24.95 116.791 25.19C116.371 25.43 116.036 25.78 115.786 26.24C115.536 26.7 115.411 27.24 115.411 27.86C115.411 28.49 115.536 29.04 115.786 29.51C116.036 29.97 116.371 30.325 116.791 30.575C117.211 30.815 117.676 30.935 118.186 30.935C118.696 30.935 119.161 30.815 119.581 30.575C120.011 30.325 120.351 29.97 120.601 29.51C120.851 29.04 120.976 28.495 120.976 27.875ZM131.743 23.78L126.793 35.87H125.383L127.003 31.91L123.688 23.78H125.203L127.783 30.44L130.333 23.78H131.743Z" fill="#B6B6B6"/>
<path d="M35.5225 24.6224L30.6238 27.3949L26.23 23.0287L30.6588 18.6274L35.5225 21.3799C35.8096 21.5422 36.0484 21.7779 36.2145 22.0627C36.3807 22.3475 36.4682 22.6714 36.4682 23.0012C36.4682 23.3309 36.3807 23.6548 36.2145 23.9396C36.0484 24.2245 35.8096 24.4601 35.5225 24.6224ZM9.67125 9.15492C9.57849 9.38012 9.53092 9.62136 9.53125 9.86492V36.1362C9.53125 36.4074 9.5875 36.6599 9.68625 36.8862L23.63 23.0274L9.67125 9.15492ZM24.93 21.7362L29.0025 17.6887L12.3125 8.24367C11.9548 8.03809 11.5381 7.95925 11.13 8.01992L24.93 21.7362ZM24.93 24.3199L11.18 37.9862C11.5525 38.0312 11.945 37.9662 12.3125 37.7574L28.9675 28.3324L24.93 24.3199Z" fill="#C9C9C9"/>
<defs>
<filter id="filter0_b_199_1664" x="-25.0417" y="-25.0417" width="190.083" height="96.0835" filterUnits="userSpaceOnUse" color-interpolation-filters="sRGB">
<feFlood flood-opacity="0" result="BackgroundImageFix"/>
<feGaussianBlur in="BackgroundImageFix" stdDeviation="12.5209"/>
<feComposite in2="SourceAlpha" operator="in" result="effect1_backgroundBlur_199_1664"/>
<feBlend mode="normal" in="SourceGraphic" in2="effect1_backgroundBlur_199_1664" result="shape"/>
</filter>
</defs>
</svg>
