<svg width="135" height="46" viewBox="0 0 135 46" fill="none" xmlns="http://www.w3.org/2000/svg">
<g filter="url(#filter0_b_199_1657)">
<rect width="135" height="45.5626" rx="6.26043" fill="white" fill-opacity="0.1"/>
</g>
<path d="M53.6656 30.675H49.1056L48.2656 33H46.8256L50.6056 22.605H52.1806L55.9456 33H54.5056L53.6656 30.675ZM53.2756 29.565L51.3856 24.285L49.4956 29.565H53.2756ZM58.958 26.295C59.228 25.825 59.628 25.435 60.158 25.125C60.698 24.805 61.323 24.645 62.033 24.645C62.763 24.645 63.423 24.82 64.013 25.17C64.613 25.52 65.083 26.015 65.423 26.655C65.763 27.285 65.933 28.02 65.933 28.86C65.933 29.69 65.763 30.43 65.423 31.08C65.083 31.73 64.613 32.235 64.013 32.595C63.423 32.955 62.763 33.135 62.033 33.135C61.333 33.135 60.713 32.98 60.173 32.67C59.643 32.35 59.238 31.955 58.958 31.485V36.9H57.593V24.78H58.958V26.295ZM64.538 28.86C64.538 28.24 64.413 27.7 64.163 27.24C63.913 26.78 63.573 26.43 63.143 26.19C62.723 25.95 62.258 25.83 61.748 25.83C61.248 25.83 60.783 25.955 60.353 26.205C59.933 26.445 59.593 26.8 59.333 27.27C59.083 27.73 58.958 28.265 58.958 28.875C58.958 29.495 59.083 30.04 59.333 30.51C59.593 30.97 59.933 31.325 60.353 31.575C60.783 31.815 61.248 31.935 61.748 31.935C62.258 31.935 62.723 31.815 63.143 31.575C63.573 31.325 63.913 30.97 64.163 30.51C64.413 30.04 64.538 29.49 64.538 28.86ZM69.0947 26.295C69.3647 25.825 69.7647 25.435 70.2947 25.125C70.8347 24.805 71.4597 24.645 72.1697 24.645C72.8997 24.645 73.5597 24.82 74.1497 25.17C74.7497 25.52 75.2197 26.015 75.5597 26.655C75.8997 27.285 76.0697 28.02 76.0697 28.86C76.0697 29.69 75.8997 30.43 75.5597 31.08C75.2197 31.73 74.7497 32.235 74.1497 32.595C73.5597 32.955 72.8997 33.135 72.1697 33.135C71.4697 33.135 70.8497 32.98 70.3097 32.67C69.7797 32.35 69.3747 31.955 69.0947 31.485V36.9H67.7297V24.78H69.0947V26.295ZM74.6747 28.86C74.6747 28.24 74.5497 27.7 74.2997 27.24C74.0497 26.78 73.7097 26.43 73.2797 26.19C72.8597 25.95 72.3947 25.83 71.8847 25.83C71.3847 25.83 70.9197 25.955 70.4897 26.205C70.0697 26.445 69.7297 26.8 69.4697 27.27C69.2197 27.73 69.0947 28.265 69.0947 28.875C69.0947 29.495 69.2197 30.04 69.4697 30.51C69.7297 30.97 70.0697 31.325 70.4897 31.575C70.9197 31.815 71.3847 31.935 71.8847 31.935C72.3947 31.935 72.8597 31.815 73.2797 31.575C73.7097 31.325 74.0497 30.97 74.2997 30.51C74.5497 30.04 74.6747 29.49 74.6747 28.86ZM85.1804 33.105C84.4904 33.105 83.8704 32.985 83.3204 32.745C82.7804 32.495 82.3554 32.155 82.0454 31.725C81.7354 31.285 81.5754 30.78 81.5654 30.21H83.0204C83.0704 30.7 83.2704 31.115 83.6204 31.455C83.9804 31.785 84.5004 31.95 85.1804 31.95C85.8304 31.95 86.3404 31.79 86.7104 31.47C87.0904 31.14 87.2804 30.72 87.2804 30.21C87.2804 29.81 87.1704 29.485 86.9504 29.235C86.7304 28.985 86.4554 28.795 86.1254 28.665C85.7954 28.535 85.3504 28.395 84.7904 28.245C84.1004 28.065 83.5454 27.885 83.1254 27.705C82.7154 27.525 82.3604 27.245 82.0604 26.865C81.7704 26.475 81.6254 25.955 81.6254 25.305C81.6254 24.735 81.7704 24.23 82.0604 23.79C82.3504 23.35 82.7554 23.01 83.2754 22.77C83.8054 22.53 84.4104 22.41 85.0904 22.41C86.0704 22.41 86.8704 22.655 87.4904 23.145C88.1204 23.635 88.4754 24.285 88.5554 25.095H87.0554C87.0054 24.695 86.7954 24.345 86.4254 24.045C86.0554 23.735 85.5654 23.58 84.9554 23.58C84.3854 23.58 83.9204 23.73 83.5604 24.03C83.2004 24.32 83.0204 24.73 83.0204 25.26C83.0204 25.64 83.1254 25.95 83.3354 26.19C83.5554 26.43 83.8204 26.615 84.1304 26.745C84.4504 26.865 84.8954 27.005 85.4654 27.165C86.1554 27.355 86.7104 27.545 87.1304 27.735C87.5504 27.915 87.9104 28.2 88.2104 28.59C88.5104 28.97 88.6604 29.49 88.6604 30.15C88.6604 30.66 88.5254 31.14 88.2554 31.59C87.9854 32.04 87.5854 32.405 87.0554 32.685C86.5254 32.965 85.9004 33.105 85.1804 33.105ZM92.3342 25.905V30.75C92.3342 31.15 92.4192 31.435 92.5892 31.605C92.7592 31.765 93.0542 31.845 93.4742 31.845H94.4792V33H93.2492C92.4892 33 91.9192 32.825 91.5392 32.475C91.1592 32.125 90.9692 31.55 90.9692 30.75V25.905H89.9042V24.78H90.9692V22.71H92.3342V24.78H94.4792V25.905H92.3342ZM99.718 33.135C98.948 33.135 98.248 32.96 97.618 32.61C96.998 32.26 96.508 31.765 96.148 31.125C95.798 30.475 95.623 29.725 95.623 28.875C95.623 28.035 95.803 27.295 96.163 26.655C96.533 26.005 97.033 25.51 97.663 25.17C98.293 24.82 98.998 24.645 99.778 24.645C100.558 24.645 101.263 24.82 101.893 25.17C102.523 25.51 103.018 26 103.378 26.64C103.748 27.28 103.933 28.025 103.933 28.875C103.933 29.725 103.743 30.475 103.363 31.125C102.993 31.765 102.488 32.26 101.848 32.61C101.208 32.96 100.498 33.135 99.718 33.135ZM99.718 31.935C100.208 31.935 100.668 31.82 101.098 31.59C101.528 31.36 101.873 31.015 102.133 30.555C102.403 30.095 102.538 29.535 102.538 28.875C102.538 28.215 102.408 27.655 102.148 27.195C101.888 26.735 101.548 26.395 101.128 26.175C100.708 25.945 100.253 25.83 99.763 25.83C99.263 25.83 98.803 25.945 98.383 26.175C97.973 26.395 97.643 26.735 97.393 27.195C97.143 27.655 97.018 28.215 97.018 28.875C97.018 29.545 97.138 30.11 97.378 30.57C97.628 31.03 97.958 31.375 98.368 31.605C98.778 31.825 99.228 31.935 99.718 31.935ZM107.093 26.115C107.333 25.645 107.673 25.28 108.113 25.02C108.563 24.76 109.108 24.63 109.748 24.63V26.04H109.388C107.858 26.04 107.093 26.87 107.093 28.53V33H105.728V24.78H107.093V26.115ZM118.823 28.575C118.823 28.835 118.808 29.11 118.778 29.4H112.208C112.258 30.21 112.533 30.845 113.033 31.305C113.543 31.755 114.158 31.98 114.878 31.98C115.468 31.98 115.958 31.845 116.348 31.575C116.748 31.295 117.028 30.925 117.188 30.465H118.658C118.438 31.255 117.998 31.9 117.338 32.4C116.678 32.89 115.858 33.135 114.878 33.135C114.098 33.135 113.398 32.96 112.778 32.61C112.168 32.26 111.688 31.765 111.338 31.125C110.988 30.475 110.813 29.725 110.813 28.875C110.813 28.025 110.983 27.28 111.323 26.64C111.663 26 112.138 25.51 112.748 25.17C113.368 24.82 114.078 24.645 114.878 24.645C115.658 24.645 116.348 24.815 116.948 25.155C117.548 25.495 118.008 25.965 118.328 26.565C118.658 27.155 118.823 27.825 118.823 28.575ZM117.413 28.29C117.413 27.77 117.298 27.325 117.068 26.955C116.838 26.575 116.523 26.29 116.123 26.1C115.733 25.9 115.298 25.8 114.818 25.8C114.128 25.8 113.538 26.02 113.048 26.46C112.568 26.9 112.293 27.51 112.223 28.29H117.413Z" fill="#B6B6B6"/>
<path d="M48.992 7.636V12.928C48.992 13.672 49.172 14.224 49.532 14.584C49.9 14.944 50.408 15.124 51.056 15.124C51.696 15.124 52.196 14.944 52.556 14.584C52.924 14.224 53.108 13.672 53.108 12.928V7.636H54.2V12.916C54.2 13.612 54.06 14.2 53.78 14.68C53.5 15.152 53.12 15.504 52.64 15.736C52.168 15.968 51.636 16.084 51.044 16.084C50.452 16.084 49.916 15.968 49.436 15.736C48.964 15.504 48.588 15.152 48.308 14.68C48.036 14.2 47.9 13.612 47.9 12.916V7.636H48.992ZM57.1137 10.636C57.3297 10.26 57.6497 9.948 58.0737 9.7C58.5057 9.444 59.0057 9.316 59.5737 9.316C60.1577 9.316 60.6857 9.456 61.1577 9.736C61.6377 10.016 62.0137 10.412 62.2857 10.924C62.5577 11.428 62.6937 12.016 62.6937 12.688C62.6937 13.352 62.5577 13.944 62.2857 14.464C62.0137 14.984 61.6377 15.388 61.1577 15.676C60.6857 15.964 60.1577 16.108 59.5737 16.108C59.0137 16.108 58.5177 15.984 58.0857 15.736C57.6617 15.48 57.3377 15.164 57.1137 14.788V19.12H56.0217V9.424H57.1137V10.636ZM61.5777 12.688C61.5777 12.192 61.4777 11.76 61.2777 11.392C61.0777 11.024 60.8057 10.744 60.4617 10.552C60.1257 10.36 59.7537 10.264 59.3457 10.264C58.9457 10.264 58.5737 10.364 58.2297 10.564C57.8937 10.756 57.6217 11.04 57.4137 11.416C57.2137 11.784 57.1137 12.212 57.1137 12.7C57.1137 13.196 57.2137 13.632 57.4137 14.008C57.6217 14.376 57.8937 14.66 58.2297 14.86C58.5737 15.052 58.9457 15.148 59.3457 15.148C59.7537 15.148 60.1257 15.052 60.4617 14.86C60.8057 14.66 61.0777 14.376 61.2777 14.008C61.4777 13.632 61.5777 13.192 61.5777 12.688ZM65.223 7.12V16H64.131V7.12H65.223ZM69.9522 16.108C69.3362 16.108 68.7762 15.968 68.2722 15.688C67.7762 15.408 67.3842 15.012 67.0962 14.5C66.8162 13.98 66.6762 13.38 66.6762 12.7C66.6762 12.028 66.8202 11.436 67.1082 10.924C67.4042 10.404 67.8042 10.008 68.3082 9.736C68.8122 9.456 69.3762 9.316 70.0002 9.316C70.6242 9.316 71.1882 9.456 71.6922 9.736C72.1962 10.008 72.5922 10.4 72.8802 10.912C73.1762 11.424 73.3242 12.02 73.3242 12.7C73.3242 13.38 73.1722 13.98 72.8682 14.5C72.5722 15.012 72.1682 15.408 71.6562 15.688C71.1442 15.968 70.5762 16.108 69.9522 16.108ZM69.9522 15.148C70.3442 15.148 70.7122 15.056 71.0562 14.872C71.4002 14.688 71.6762 14.412 71.8842 14.044C72.1002 13.676 72.2082 13.228 72.2082 12.7C72.2082 12.172 72.1042 11.724 71.8962 11.356C71.6882 10.988 71.4162 10.716 71.0802 10.54C70.7442 10.356 70.3802 10.264 69.9882 10.264C69.5882 10.264 69.2202 10.356 68.8842 10.54C68.5562 10.716 68.2922 10.988 68.0922 11.356C67.8922 11.724 67.7922 12.172 67.7922 12.7C67.7922 13.236 67.8882 13.688 68.0802 14.056C68.2802 14.424 68.5442 14.7 68.8722 14.884C69.2002 15.06 69.5602 15.148 69.9522 15.148ZM74.3519 12.688C74.3519 12.016 74.4879 11.428 74.7599 10.924C75.0319 10.412 75.4039 10.016 75.8759 9.736C76.3559 9.456 76.8879 9.316 77.4719 9.316C78.0479 9.316 78.5479 9.44 78.9719 9.688C79.3959 9.936 79.7119 10.248 79.9199 10.624V9.424H81.0239V16H79.9199V14.776C79.7039 15.16 79.3799 15.48 78.9479 15.736C78.5239 15.984 78.0279 16.108 77.4599 16.108C76.8759 16.108 76.3479 15.964 75.8759 15.676C75.4039 15.388 75.0319 14.984 74.7599 14.464C74.4879 13.944 74.3519 13.352 74.3519 12.688ZM79.9199 12.7C79.9199 12.204 79.8199 11.772 79.6199 11.404C79.4199 11.036 79.1479 10.756 78.8039 10.564C78.4679 10.364 78.0959 10.264 77.6879 10.264C77.2799 10.264 76.9079 10.36 76.5719 10.552C76.2359 10.744 75.9679 11.024 75.7679 11.392C75.5679 11.76 75.4679 12.192 75.4679 12.688C75.4679 13.192 75.5679 13.632 75.7679 14.008C75.9679 14.376 76.2359 14.66 76.5719 14.86C76.9079 15.052 77.2799 15.148 77.6879 15.148C78.0959 15.148 78.4679 15.052 78.8039 14.86C79.1479 14.66 79.4199 14.376 79.6199 14.008C79.8199 13.632 79.9199 13.196 79.9199 12.7ZM82.4613 12.688C82.4613 12.016 82.5973 11.428 82.8693 10.924C83.1413 10.412 83.5133 10.016 83.9853 9.736C84.4653 9.456 85.0013 9.316 85.5933 9.316C86.1053 9.316 86.5813 9.436 87.0213 9.676C87.4613 9.908 87.7973 10.216 88.0293 10.6V7.12H89.1333V16H88.0293V14.764C87.8133 15.156 87.4933 15.48 87.0693 15.736C86.6453 15.984 86.1493 16.108 85.5813 16.108C84.9973 16.108 84.4653 15.964 83.9853 15.676C83.5133 15.388 83.1413 14.984 82.8693 14.464C82.5973 13.944 82.4613 13.352 82.4613 12.688ZM88.0293 12.7C88.0293 12.204 87.9293 11.772 87.7293 11.404C87.5293 11.036 87.2573 10.756 86.9133 10.564C86.5773 10.364 86.2053 10.264 85.7973 10.264C85.3893 10.264 85.0173 10.36 84.6813 10.552C84.3453 10.744 84.0773 11.024 83.8773 11.392C83.6773 11.76 83.5773 12.192 83.5773 12.688C83.5773 13.192 83.6773 13.632 83.8773 14.008C84.0773 14.376 84.3453 14.66 84.6813 14.86C85.0173 15.052 85.3893 15.148 85.7973 15.148C86.2053 15.148 86.5773 15.052 86.9133 14.86C87.2573 14.66 87.5293 14.376 87.7293 14.008C87.9293 13.632 88.0293 13.196 88.0293 12.7ZM95.5099 10.324V14.2C95.5099 14.52 95.5779 14.748 95.7139 14.884C95.8499 15.012 96.0859 15.076 96.4219 15.076H97.2259V16H96.2419C95.6339 16 95.1779 15.86 94.8739 15.58C94.5699 15.3 94.4179 14.84 94.4179 14.2V10.324H93.5659V9.424H94.4179V7.768H95.5099V9.424H97.2259V10.324H95.5099ZM101.417 16.108C100.801 16.108 100.241 15.968 99.737 15.688C99.241 15.408 98.849 15.012 98.561 14.5C98.281 13.98 98.141 13.38 98.141 12.7C98.141 12.028 98.285 11.436 98.573 10.924C98.869 10.404 99.269 10.008 99.773 9.736C100.277 9.456 100.841 9.316 101.465 9.316C102.089 9.316 102.653 9.456 103.157 9.736C103.661 10.008 104.057 10.4 104.345 10.912C104.641 11.424 104.789 12.02 104.789 12.7C104.789 13.38 104.637 13.98 104.333 14.5C104.037 15.012 103.633 15.408 103.121 15.688C102.609 15.968 102.041 16.108 101.417 16.108ZM101.417 15.148C101.809 15.148 102.177 15.056 102.521 14.872C102.865 14.688 103.141 14.412 103.349 14.044C103.565 13.676 103.673 13.228 103.673 12.7C103.673 12.172 103.569 11.724 103.361 11.356C103.153 10.988 102.881 10.716 102.545 10.54C102.209 10.356 101.845 10.264 101.453 10.264C101.053 10.264 100.685 10.356 100.349 10.54C100.021 10.716 99.757 10.988 99.557 11.356C99.357 11.724 99.257 12.172 99.257 12.7C99.257 13.236 99.353 13.688 99.545 14.056C99.745 14.424 100.009 14.7 100.337 14.884C100.665 15.06 101.025 15.148 101.417 15.148Z" fill="#BDBDBD"/>
<path d="M48.992 7.636V12.928C48.992 13.672 49.172 14.224 49.532 14.584C49.9 14.944 50.408 15.124 51.056 15.124C51.696 15.124 52.196 14.944 52.556 14.584C52.924 14.224 53.108 13.672 53.108 12.928V7.636H54.2V12.916C54.2 13.612 54.06 14.2 53.78 14.68C53.5 15.152 53.12 15.504 52.64 15.736C52.168 15.968 51.636 16.084 51.044 16.084C50.452 16.084 49.916 15.968 49.436 15.736C48.964 15.504 48.588 15.152 48.308 14.68C48.036 14.2 47.9 13.612 47.9 12.916V7.636H48.992ZM57.1137 10.636C57.3297 10.26 57.6497 9.948 58.0737 9.7C58.5057 9.444 59.0057 9.316 59.5737 9.316C60.1577 9.316 60.6857 9.456 61.1577 9.736C61.6377 10.016 62.0137 10.412 62.2857 10.924C62.5577 11.428 62.6937 12.016 62.6937 12.688C62.6937 13.352 62.5577 13.944 62.2857 14.464C62.0137 14.984 61.6377 15.388 61.1577 15.676C60.6857 15.964 60.1577 16.108 59.5737 16.108C59.0137 16.108 58.5177 15.984 58.0857 15.736C57.6617 15.48 57.3377 15.164 57.1137 14.788V19.12H56.0217V9.424H57.1137V10.636ZM61.5777 12.688C61.5777 12.192 61.4777 11.76 61.2777 11.392C61.0777 11.024 60.8057 10.744 60.4617 10.552C60.1257 10.36 59.7537 10.264 59.3457 10.264C58.9457 10.264 58.5737 10.364 58.2297 10.564C57.8937 10.756 57.6217 11.04 57.4137 11.416C57.2137 11.784 57.1137 12.212 57.1137 12.7C57.1137 13.196 57.2137 13.632 57.4137 14.008C57.6217 14.376 57.8937 14.66 58.2297 14.86C58.5737 15.052 58.9457 15.148 59.3457 15.148C59.7537 15.148 60.1257 15.052 60.4617 14.86C60.8057 14.66 61.0777 14.376 61.2777 14.008C61.4777 13.632 61.5777 13.192 61.5777 12.688ZM65.223 7.12V16H64.131V7.12H65.223ZM69.9522 16.108C69.3362 16.108 68.7762 15.968 68.2722 15.688C67.7762 15.408 67.3842 15.012 67.0962 14.5C66.8162 13.98 66.6762 13.38 66.6762 12.7C66.6762 12.028 66.8202 11.436 67.1082 10.924C67.4042 10.404 67.8042 10.008 68.3082 9.736C68.8122 9.456 69.3762 9.316 70.0002 9.316C70.6242 9.316 71.1882 9.456 71.6922 9.736C72.1962 10.008 72.5922 10.4 72.8802 10.912C73.1762 11.424 73.3242 12.02 73.3242 12.7C73.3242 13.38 73.1722 13.98 72.8682 14.5C72.5722 15.012 72.1682 15.408 71.6562 15.688C71.1442 15.968 70.5762 16.108 69.9522 16.108ZM69.9522 15.148C70.3442 15.148 70.7122 15.056 71.0562 14.872C71.4002 14.688 71.6762 14.412 71.8842 14.044C72.1002 13.676 72.2082 13.228 72.2082 12.7C72.2082 12.172 72.1042 11.724 71.8962 11.356C71.6882 10.988 71.4162 10.716 71.0802 10.54C70.7442 10.356 70.3802 10.264 69.9882 10.264C69.5882 10.264 69.2202 10.356 68.8842 10.54C68.5562 10.716 68.2922 10.988 68.0922 11.356C67.8922 11.724 67.7922 12.172 67.7922 12.7C67.7922 13.236 67.8882 13.688 68.0802 14.056C68.2802 14.424 68.5442 14.7 68.8722 14.884C69.2002 15.06 69.5602 15.148 69.9522 15.148ZM74.3519 12.688C74.3519 12.016 74.4879 11.428 74.7599 10.924C75.0319 10.412 75.4039 10.016 75.8759 9.736C76.3559 9.456 76.8879 9.316 77.4719 9.316C78.0479 9.316 78.5479 9.44 78.9719 9.688C79.3959 9.936 79.7119 10.248 79.9199 10.624V9.424H81.0239V16H79.9199V14.776C79.7039 15.16 79.3799 15.48 78.9479 15.736C78.5239 15.984 78.0279 16.108 77.4599 16.108C76.8759 16.108 76.3479 15.964 75.8759 15.676C75.4039 15.388 75.0319 14.984 74.7599 14.464C74.4879 13.944 74.3519 13.352 74.3519 12.688ZM79.9199 12.7C79.9199 12.204 79.8199 11.772 79.6199 11.404C79.4199 11.036 79.1479 10.756 78.8039 10.564C78.4679 10.364 78.0959 10.264 77.6879 10.264C77.2799 10.264 76.9079 10.36 76.5719 10.552C76.2359 10.744 75.9679 11.024 75.7679 11.392C75.5679 11.76 75.4679 12.192 75.4679 12.688C75.4679 13.192 75.5679 13.632 75.7679 14.008C75.9679 14.376 76.2359 14.66 76.5719 14.86C76.9079 15.052 77.2799 15.148 77.6879 15.148C78.0959 15.148 78.4679 15.052 78.8039 14.86C79.1479 14.66 79.4199 14.376 79.6199 14.008C79.8199 13.632 79.9199 13.196 79.9199 12.7ZM82.4613 12.688C82.4613 12.016 82.5973 11.428 82.8693 10.924C83.1413 10.412 83.5133 10.016 83.9853 9.736C84.4653 9.456 85.0013 9.316 85.5933 9.316C86.1053 9.316 86.5813 9.436 87.0213 9.676C87.4613 9.908 87.7973 10.216 88.0293 10.6V7.12H89.1333V16H88.0293V14.764C87.8133 15.156 87.4933 15.48 87.0693 15.736C86.6453 15.984 86.1493 16.108 85.5813 16.108C84.9973 16.108 84.4653 15.964 83.9853 15.676C83.5133 15.388 83.1413 14.984 82.8693 14.464C82.5973 13.944 82.4613 13.352 82.4613 12.688ZM88.0293 12.7C88.0293 12.204 87.9293 11.772 87.7293 11.404C87.5293 11.036 87.2573 10.756 86.9133 10.564C86.5773 10.364 86.2053 10.264 85.7973 10.264C85.3893 10.264 85.0173 10.36 84.6813 10.552C84.3453 10.744 84.0773 11.024 83.8773 11.392C83.6773 11.76 83.5773 12.192 83.5773 12.688C83.5773 13.192 83.6773 13.632 83.8773 14.008C84.0773 14.376 84.3453 14.66 84.6813 14.86C85.0173 15.052 85.3893 15.148 85.7973 15.148C86.2053 15.148 86.5773 15.052 86.9133 14.86C87.2573 14.66 87.5293 14.376 87.7293 14.008C87.9293 13.632 88.0293 13.196 88.0293 12.7ZM95.5099 10.324V14.2C95.5099 14.52 95.5779 14.748 95.7139 14.884C95.8499 15.012 96.0859 15.076 96.4219 15.076H97.2259V16H96.2419C95.6339 16 95.1779 15.86 94.8739 15.58C94.5699 15.3 94.4179 14.84 94.4179 14.2V10.324H93.5659V9.424H94.4179V7.768H95.5099V9.424H97.2259V10.324H95.5099ZM101.417 16.108C100.801 16.108 100.241 15.968 99.737 15.688C99.241 15.408 98.849 15.012 98.561 14.5C98.281 13.98 98.141 13.38 98.141 12.7C98.141 12.028 98.285 11.436 98.573 10.924C98.869 10.404 99.269 10.008 99.773 9.736C100.277 9.456 100.841 9.316 101.465 9.316C102.089 9.316 102.653 9.456 103.157 9.736C103.661 10.008 104.057 10.4 104.345 10.912C104.641 11.424 104.789 12.02 104.789 12.7C104.789 13.38 104.637 13.98 104.333 14.5C104.037 15.012 103.633 15.408 103.121 15.688C102.609 15.968 102.041 16.108 101.417 16.108ZM101.417 15.148C101.809 15.148 102.177 15.056 102.521 14.872C102.865 14.688 103.141 14.412 103.349 14.044C103.565 13.676 103.673 13.228 103.673 12.7C103.673 12.172 103.569 11.724 103.361 11.356C103.153 10.988 102.881 10.716 102.545 10.54C102.209 10.356 101.845 10.264 101.453 10.264C101.053 10.264 100.685 10.356 100.349 10.54C100.021 10.716 99.757 10.988 99.557 11.356C99.357 11.724 99.257 12.172 99.257 12.7C99.257 13.236 99.353 13.688 99.545 14.056C99.745 14.424 100.009 14.7 100.337 14.884C100.665 15.06 101.025 15.148 101.417 15.148Z" fill="#BDBDBD"/>
<path d="M48.992 7.636V12.928C48.992 13.672 49.172 14.224 49.532 14.584C49.9 14.944 50.408 15.124 51.056 15.124C51.696 15.124 52.196 14.944 52.556 14.584C52.924 14.224 53.108 13.672 53.108 12.928V7.636H54.2V12.916C54.2 13.612 54.06 14.2 53.78 14.68C53.5 15.152 53.12 15.504 52.64 15.736C52.168 15.968 51.636 16.084 51.044 16.084C50.452 16.084 49.916 15.968 49.436 15.736C48.964 15.504 48.588 15.152 48.308 14.68C48.036 14.2 47.9 13.612 47.9 12.916V7.636H48.992ZM57.1137 10.636C57.3297 10.26 57.6497 9.948 58.0737 9.7C58.5057 9.444 59.0057 9.316 59.5737 9.316C60.1577 9.316 60.6857 9.456 61.1577 9.736C61.6377 10.016 62.0137 10.412 62.2857 10.924C62.5577 11.428 62.6937 12.016 62.6937 12.688C62.6937 13.352 62.5577 13.944 62.2857 14.464C62.0137 14.984 61.6377 15.388 61.1577 15.676C60.6857 15.964 60.1577 16.108 59.5737 16.108C59.0137 16.108 58.5177 15.984 58.0857 15.736C57.6617 15.48 57.3377 15.164 57.1137 14.788V19.12H56.0217V9.424H57.1137V10.636ZM61.5777 12.688C61.5777 12.192 61.4777 11.76 61.2777 11.392C61.0777 11.024 60.8057 10.744 60.4617 10.552C60.1257 10.36 59.7537 10.264 59.3457 10.264C58.9457 10.264 58.5737 10.364 58.2297 10.564C57.8937 10.756 57.6217 11.04 57.4137 11.416C57.2137 11.784 57.1137 12.212 57.1137 12.7C57.1137 13.196 57.2137 13.632 57.4137 14.008C57.6217 14.376 57.8937 14.66 58.2297 14.86C58.5737 15.052 58.9457 15.148 59.3457 15.148C59.7537 15.148 60.1257 15.052 60.4617 14.86C60.8057 14.66 61.0777 14.376 61.2777 14.008C61.4777 13.632 61.5777 13.192 61.5777 12.688ZM65.223 7.12V16H64.131V7.12H65.223ZM69.9522 16.108C69.3362 16.108 68.7762 15.968 68.2722 15.688C67.7762 15.408 67.3842 15.012 67.0962 14.5C66.8162 13.98 66.6762 13.38 66.6762 12.7C66.6762 12.028 66.8202 11.436 67.1082 10.924C67.4042 10.404 67.8042 10.008 68.3082 9.736C68.8122 9.456 69.3762 9.316 70.0002 9.316C70.6242 9.316 71.1882 9.456 71.6922 9.736C72.1962 10.008 72.5922 10.4 72.8802 10.912C73.1762 11.424 73.3242 12.02 73.3242 12.7C73.3242 13.38 73.1722 13.98 72.8682 14.5C72.5722 15.012 72.1682 15.408 71.6562 15.688C71.1442 15.968 70.5762 16.108 69.9522 16.108ZM69.9522 15.148C70.3442 15.148 70.7122 15.056 71.0562 14.872C71.4002 14.688 71.6762 14.412 71.8842 14.044C72.1002 13.676 72.2082 13.228 72.2082 12.7C72.2082 12.172 72.1042 11.724 71.8962 11.356C71.6882 10.988 71.4162 10.716 71.0802 10.54C70.7442 10.356 70.3802 10.264 69.9882 10.264C69.5882 10.264 69.2202 10.356 68.8842 10.54C68.5562 10.716 68.2922 10.988 68.0922 11.356C67.8922 11.724 67.7922 12.172 67.7922 12.7C67.7922 13.236 67.8882 13.688 68.0802 14.056C68.2802 14.424 68.5442 14.7 68.8722 14.884C69.2002 15.06 69.5602 15.148 69.9522 15.148ZM74.3519 12.688C74.3519 12.016 74.4879 11.428 74.7599 10.924C75.0319 10.412 75.4039 10.016 75.8759 9.736C76.3559 9.456 76.8879 9.316 77.4719 9.316C78.0479 9.316 78.5479 9.44 78.9719 9.688C79.3959 9.936 79.7119 10.248 79.9199 10.624V9.424H81.0239V16H79.9199V14.776C79.7039 15.16 79.3799 15.48 78.9479 15.736C78.5239 15.984 78.0279 16.108 77.4599 16.108C76.8759 16.108 76.3479 15.964 75.8759 15.676C75.4039 15.388 75.0319 14.984 74.7599 14.464C74.4879 13.944 74.3519 13.352 74.3519 12.688ZM79.9199 12.7C79.9199 12.204 79.8199 11.772 79.6199 11.404C79.4199 11.036 79.1479 10.756 78.8039 10.564C78.4679 10.364 78.0959 10.264 77.6879 10.264C77.2799 10.264 76.9079 10.36 76.5719 10.552C76.2359 10.744 75.9679 11.024 75.7679 11.392C75.5679 11.76 75.4679 12.192 75.4679 12.688C75.4679 13.192 75.5679 13.632 75.7679 14.008C75.9679 14.376 76.2359 14.66 76.5719 14.86C76.9079 15.052 77.2799 15.148 77.6879 15.148C78.0959 15.148 78.4679 15.052 78.8039 14.86C79.1479 14.66 79.4199 14.376 79.6199 14.008C79.8199 13.632 79.9199 13.196 79.9199 12.7ZM82.4613 12.688C82.4613 12.016 82.5973 11.428 82.8693 10.924C83.1413 10.412 83.5133 10.016 83.9853 9.736C84.4653 9.456 85.0013 9.316 85.5933 9.316C86.1053 9.316 86.5813 9.436 87.0213 9.676C87.4613 9.908 87.7973 10.216 88.0293 10.6V7.12H89.1333V16H88.0293V14.764C87.8133 15.156 87.4933 15.48 87.0693 15.736C86.6453 15.984 86.1493 16.108 85.5813 16.108C84.9973 16.108 84.4653 15.964 83.9853 15.676C83.5133 15.388 83.1413 14.984 82.8693 14.464C82.5973 13.944 82.4613 13.352 82.4613 12.688ZM88.0293 12.7C88.0293 12.204 87.9293 11.772 87.7293 11.404C87.5293 11.036 87.2573 10.756 86.9133 10.564C86.5773 10.364 86.2053 10.264 85.7973 10.264C85.3893 10.264 85.0173 10.36 84.6813 10.552C84.3453 10.744 84.0773 11.024 83.8773 11.392C83.6773 11.76 83.5773 12.192 83.5773 12.688C83.5773 13.192 83.6773 13.632 83.8773 14.008C84.0773 14.376 84.3453 14.66 84.6813 14.86C85.0173 15.052 85.3893 15.148 85.7973 15.148C86.2053 15.148 86.5773 15.052 86.9133 14.86C87.2573 14.66 87.5293 14.376 87.7293 14.008C87.9293 13.632 88.0293 13.196 88.0293 12.7ZM95.5099 10.324V14.2C95.5099 14.52 95.5779 14.748 95.7139 14.884C95.8499 15.012 96.0859 15.076 96.4219 15.076H97.2259V16H96.2419C95.6339 16 95.1779 15.86 94.8739 15.58C94.5699 15.3 94.4179 14.84 94.4179 14.2V10.324H93.5659V9.424H94.4179V7.768H95.5099V9.424H97.2259V10.324H95.5099ZM101.417 16.108C100.801 16.108 100.241 15.968 99.737 15.688C99.241 15.408 98.849 15.012 98.561 14.5C98.281 13.98 98.141 13.38 98.141 12.7C98.141 12.028 98.285 11.436 98.573 10.924C98.869 10.404 99.269 10.008 99.773 9.736C100.277 9.456 100.841 9.316 101.465 9.316C102.089 9.316 102.653 9.456 103.157 9.736C103.661 10.008 104.057 10.4 104.345 10.912C104.641 11.424 104.789 12.02 104.789 12.7C104.789 13.38 104.637 13.98 104.333 14.5C104.037 15.012 103.633 15.408 103.121 15.688C102.609 15.968 102.041 16.108 101.417 16.108ZM101.417 15.148C101.809 15.148 102.177 15.056 102.521 14.872C102.865 14.688 103.141 14.412 103.349 14.044C103.565 13.676 103.673 13.228 103.673 12.7C103.673 12.172 103.569 11.724 103.361 11.356C103.153 10.988 102.881 10.716 102.545 10.54C102.209 10.356 101.845 10.264 101.453 10.264C101.053 10.264 100.685 10.356 100.349 10.54C100.021 10.716 99.757 10.988 99.557 11.356C99.357 11.724 99.257 12.172 99.257 12.7C99.257 13.236 99.353 13.688 99.545 14.056C99.745 14.424 100.009 14.7 100.337 14.884C100.665 15.06 101.025 15.148 101.417 15.148Z" fill="#BDBDBD"/>
<path d="M48.992 7.636V12.928C48.992 13.672 49.172 14.224 49.532 14.584C49.9 14.944 50.408 15.124 51.056 15.124C51.696 15.124 52.196 14.944 52.556 14.584C52.924 14.224 53.108 13.672 53.108 12.928V7.636H54.2V12.916C54.2 13.612 54.06 14.2 53.78 14.68C53.5 15.152 53.12 15.504 52.64 15.736C52.168 15.968 51.636 16.084 51.044 16.084C50.452 16.084 49.916 15.968 49.436 15.736C48.964 15.504 48.588 15.152 48.308 14.68C48.036 14.2 47.9 13.612 47.9 12.916V7.636H48.992ZM57.1137 10.636C57.3297 10.26 57.6497 9.948 58.0737 9.7C58.5057 9.444 59.0057 9.316 59.5737 9.316C60.1577 9.316 60.6857 9.456 61.1577 9.736C61.6377 10.016 62.0137 10.412 62.2857 10.924C62.5577 11.428 62.6937 12.016 62.6937 12.688C62.6937 13.352 62.5577 13.944 62.2857 14.464C62.0137 14.984 61.6377 15.388 61.1577 15.676C60.6857 15.964 60.1577 16.108 59.5737 16.108C59.0137 16.108 58.5177 15.984 58.0857 15.736C57.6617 15.48 57.3377 15.164 57.1137 14.788V19.12H56.0217V9.424H57.1137V10.636ZM61.5777 12.688C61.5777 12.192 61.4777 11.76 61.2777 11.392C61.0777 11.024 60.8057 10.744 60.4617 10.552C60.1257 10.36 59.7537 10.264 59.3457 10.264C58.9457 10.264 58.5737 10.364 58.2297 10.564C57.8937 10.756 57.6217 11.04 57.4137 11.416C57.2137 11.784 57.1137 12.212 57.1137 12.7C57.1137 13.196 57.2137 13.632 57.4137 14.008C57.6217 14.376 57.8937 14.66 58.2297 14.86C58.5737 15.052 58.9457 15.148 59.3457 15.148C59.7537 15.148 60.1257 15.052 60.4617 14.86C60.8057 14.66 61.0777 14.376 61.2777 14.008C61.4777 13.632 61.5777 13.192 61.5777 12.688ZM65.223 7.12V16H64.131V7.12H65.223ZM69.9522 16.108C69.3362 16.108 68.7762 15.968 68.2722 15.688C67.7762 15.408 67.3842 15.012 67.0962 14.5C66.8162 13.98 66.6762 13.38 66.6762 12.7C66.6762 12.028 66.8202 11.436 67.1082 10.924C67.4042 10.404 67.8042 10.008 68.3082 9.736C68.8122 9.456 69.3762 9.316 70.0002 9.316C70.6242 9.316 71.1882 9.456 71.6922 9.736C72.1962 10.008 72.5922 10.4 72.8802 10.912C73.1762 11.424 73.3242 12.02 73.3242 12.7C73.3242 13.38 73.1722 13.98 72.8682 14.5C72.5722 15.012 72.1682 15.408 71.6562 15.688C71.1442 15.968 70.5762 16.108 69.9522 16.108ZM69.9522 15.148C70.3442 15.148 70.7122 15.056 71.0562 14.872C71.4002 14.688 71.6762 14.412 71.8842 14.044C72.1002 13.676 72.2082 13.228 72.2082 12.7C72.2082 12.172 72.1042 11.724 71.8962 11.356C71.6882 10.988 71.4162 10.716 71.0802 10.54C70.7442 10.356 70.3802 10.264 69.9882 10.264C69.5882 10.264 69.2202 10.356 68.8842 10.54C68.5562 10.716 68.2922 10.988 68.0922 11.356C67.8922 11.724 67.7922 12.172 67.7922 12.7C67.7922 13.236 67.8882 13.688 68.0802 14.056C68.2802 14.424 68.5442 14.7 68.8722 14.884C69.2002 15.06 69.5602 15.148 69.9522 15.148ZM74.3519 12.688C74.3519 12.016 74.4879 11.428 74.7599 10.924C75.0319 10.412 75.4039 10.016 75.8759 9.736C76.3559 9.456 76.8879 9.316 77.4719 9.316C78.0479 9.316 78.5479 9.44 78.9719 9.688C79.3959 9.936 79.7119 10.248 79.9199 10.624V9.424H81.0239V16H79.9199V14.776C79.7039 15.16 79.3799 15.48 78.9479 15.736C78.5239 15.984 78.0279 16.108 77.4599 16.108C76.8759 16.108 76.3479 15.964 75.8759 15.676C75.4039 15.388 75.0319 14.984 74.7599 14.464C74.4879 13.944 74.3519 13.352 74.3519 12.688ZM79.9199 12.7C79.9199 12.204 79.8199 11.772 79.6199 11.404C79.4199 11.036 79.1479 10.756 78.8039 10.564C78.4679 10.364 78.0959 10.264 77.6879 10.264C77.2799 10.264 76.9079 10.36 76.5719 10.552C76.2359 10.744 75.9679 11.024 75.7679 11.392C75.5679 11.76 75.4679 12.192 75.4679 12.688C75.4679 13.192 75.5679 13.632 75.7679 14.008C75.9679 14.376 76.2359 14.66 76.5719 14.86C76.9079 15.052 77.2799 15.148 77.6879 15.148C78.0959 15.148 78.4679 15.052 78.8039 14.86C79.1479 14.66 79.4199 14.376 79.6199 14.008C79.8199 13.632 79.9199 13.196 79.9199 12.7ZM82.4613 12.688C82.4613 12.016 82.5973 11.428 82.8693 10.924C83.1413 10.412 83.5133 10.016 83.9853 9.736C84.4653 9.456 85.0013 9.316 85.5933 9.316C86.1053 9.316 86.5813 9.436 87.0213 9.676C87.4613 9.908 87.7973 10.216 88.0293 10.6V7.12H89.1333V16H88.0293V14.764C87.8133 15.156 87.4933 15.48 87.0693 15.736C86.6453 15.984 86.1493 16.108 85.5813 16.108C84.9973 16.108 84.4653 15.964 83.9853 15.676C83.5133 15.388 83.1413 14.984 82.8693 14.464C82.5973 13.944 82.4613 13.352 82.4613 12.688ZM88.0293 12.7C88.0293 12.204 87.9293 11.772 87.7293 11.404C87.5293 11.036 87.2573 10.756 86.9133 10.564C86.5773 10.364 86.2053 10.264 85.7973 10.264C85.3893 10.264 85.0173 10.36 84.6813 10.552C84.3453 10.744 84.0773 11.024 83.8773 11.392C83.6773 11.76 83.5773 12.192 83.5773 12.688C83.5773 13.192 83.6773 13.632 83.8773 14.008C84.0773 14.376 84.3453 14.66 84.6813 14.86C85.0173 15.052 85.3893 15.148 85.7973 15.148C86.2053 15.148 86.5773 15.052 86.9133 14.86C87.2573 14.66 87.5293 14.376 87.7293 14.008C87.9293 13.632 88.0293 13.196 88.0293 12.7ZM95.5099 10.324V14.2C95.5099 14.52 95.5779 14.748 95.7139 14.884C95.8499 15.012 96.0859 15.076 96.4219 15.076H97.2259V16H96.2419C95.6339 16 95.1779 15.86 94.8739 15.58C94.5699 15.3 94.4179 14.84 94.4179 14.2V10.324H93.5659V9.424H94.4179V7.768H95.5099V9.424H97.2259V10.324H95.5099ZM101.417 16.108C100.801 16.108 100.241 15.968 99.737 15.688C99.241 15.408 98.849 15.012 98.561 14.5C98.281 13.98 98.141 13.38 98.141 12.7C98.141 12.028 98.285 11.436 98.573 10.924C98.869 10.404 99.269 10.008 99.773 9.736C100.277 9.456 100.841 9.316 101.465 9.316C102.089 9.316 102.653 9.456 103.157 9.736C103.661 10.008 104.057 10.4 104.345 10.912C104.641 11.424 104.789 12.02 104.789 12.7C104.789 13.38 104.637 13.98 104.333 14.5C104.037 15.012 103.633 15.408 103.121 15.688C102.609 15.968 102.041 16.108 101.417 16.108ZM101.417 15.148C101.809 15.148 102.177 15.056 102.521 14.872C102.865 14.688 103.141 14.412 103.349 14.044C103.565 13.676 103.673 13.228 103.673 12.7C103.673 12.172 103.569 11.724 103.361 11.356C103.153 10.988 102.881 10.716 102.545 10.54C102.209 10.356 101.845 10.264 101.453 10.264C101.053 10.264 100.685 10.356 100.349 10.54C100.021 10.716 99.757 10.988 99.557 11.356C99.357 11.724 99.257 12.172 99.257 12.7C99.257 13.236 99.353 13.688 99.545 14.056C99.745 14.424 100.009 14.7 100.337 14.884C100.665 15.06 101.025 15.148 101.417 15.148Z" fill="#BDBDBD"/>
<path d="M48.992 7.636V12.928C48.992 13.672 49.172 14.224 49.532 14.584C49.9 14.944 50.408 15.124 51.056 15.124C51.696 15.124 52.196 14.944 52.556 14.584C52.924 14.224 53.108 13.672 53.108 12.928V7.636H54.2V12.916C54.2 13.612 54.06 14.2 53.78 14.68C53.5 15.152 53.12 15.504 52.64 15.736C52.168 15.968 51.636 16.084 51.044 16.084C50.452 16.084 49.916 15.968 49.436 15.736C48.964 15.504 48.588 15.152 48.308 14.68C48.036 14.2 47.9 13.612 47.9 12.916V7.636H48.992ZM57.1137 10.636C57.3297 10.26 57.6497 9.948 58.0737 9.7C58.5057 9.444 59.0057 9.316 59.5737 9.316C60.1577 9.316 60.6857 9.456 61.1577 9.736C61.6377 10.016 62.0137 10.412 62.2857 10.924C62.5577 11.428 62.6937 12.016 62.6937 12.688C62.6937 13.352 62.5577 13.944 62.2857 14.464C62.0137 14.984 61.6377 15.388 61.1577 15.676C60.6857 15.964 60.1577 16.108 59.5737 16.108C59.0137 16.108 58.5177 15.984 58.0857 15.736C57.6617 15.48 57.3377 15.164 57.1137 14.788V19.12H56.0217V9.424H57.1137V10.636ZM61.5777 12.688C61.5777 12.192 61.4777 11.76 61.2777 11.392C61.0777 11.024 60.8057 10.744 60.4617 10.552C60.1257 10.36 59.7537 10.264 59.3457 10.264C58.9457 10.264 58.5737 10.364 58.2297 10.564C57.8937 10.756 57.6217 11.04 57.4137 11.416C57.2137 11.784 57.1137 12.212 57.1137 12.7C57.1137 13.196 57.2137 13.632 57.4137 14.008C57.6217 14.376 57.8937 14.66 58.2297 14.86C58.5737 15.052 58.9457 15.148 59.3457 15.148C59.7537 15.148 60.1257 15.052 60.4617 14.86C60.8057 14.66 61.0777 14.376 61.2777 14.008C61.4777 13.632 61.5777 13.192 61.5777 12.688ZM65.223 7.12V16H64.131V7.12H65.223ZM69.9522 16.108C69.3362 16.108 68.7762 15.968 68.2722 15.688C67.7762 15.408 67.3842 15.012 67.0962 14.5C66.8162 13.98 66.6762 13.38 66.6762 12.7C66.6762 12.028 66.8202 11.436 67.1082 10.924C67.4042 10.404 67.8042 10.008 68.3082 9.736C68.8122 9.456 69.3762 9.316 70.0002 9.316C70.6242 9.316 71.1882 9.456 71.6922 9.736C72.1962 10.008 72.5922 10.4 72.8802 10.912C73.1762 11.424 73.3242 12.02 73.3242 12.7C73.3242 13.38 73.1722 13.98 72.8682 14.5C72.5722 15.012 72.1682 15.408 71.6562 15.688C71.1442 15.968 70.5762 16.108 69.9522 16.108ZM69.9522 15.148C70.3442 15.148 70.7122 15.056 71.0562 14.872C71.4002 14.688 71.6762 14.412 71.8842 14.044C72.1002 13.676 72.2082 13.228 72.2082 12.7C72.2082 12.172 72.1042 11.724 71.8962 11.356C71.6882 10.988 71.4162 10.716 71.0802 10.54C70.7442 10.356 70.3802 10.264 69.9882 10.264C69.5882 10.264 69.2202 10.356 68.8842 10.54C68.5562 10.716 68.2922 10.988 68.0922 11.356C67.8922 11.724 67.7922 12.172 67.7922 12.7C67.7922 13.236 67.8882 13.688 68.0802 14.056C68.2802 14.424 68.5442 14.7 68.8722 14.884C69.2002 15.06 69.5602 15.148 69.9522 15.148ZM74.3519 12.688C74.3519 12.016 74.4879 11.428 74.7599 10.924C75.0319 10.412 75.4039 10.016 75.8759 9.736C76.3559 9.456 76.8879 9.316 77.4719 9.316C78.0479 9.316 78.5479 9.44 78.9719 9.688C79.3959 9.936 79.7119 10.248 79.9199 10.624V9.424H81.0239V16H79.9199V14.776C79.7039 15.16 79.3799 15.48 78.9479 15.736C78.5239 15.984 78.0279 16.108 77.4599 16.108C76.8759 16.108 76.3479 15.964 75.8759 15.676C75.4039 15.388 75.0319 14.984 74.7599 14.464C74.4879 13.944 74.3519 13.352 74.3519 12.688ZM79.9199 12.7C79.9199 12.204 79.8199 11.772 79.6199 11.404C79.4199 11.036 79.1479 10.756 78.8039 10.564C78.4679 10.364 78.0959 10.264 77.6879 10.264C77.2799 10.264 76.9079 10.36 76.5719 10.552C76.2359 10.744 75.9679 11.024 75.7679 11.392C75.5679 11.76 75.4679 12.192 75.4679 12.688C75.4679 13.192 75.5679 13.632 75.7679 14.008C75.9679 14.376 76.2359 14.66 76.5719 14.86C76.9079 15.052 77.2799 15.148 77.6879 15.148C78.0959 15.148 78.4679 15.052 78.8039 14.86C79.1479 14.66 79.4199 14.376 79.6199 14.008C79.8199 13.632 79.9199 13.196 79.9199 12.7ZM82.4613 12.688C82.4613 12.016 82.5973 11.428 82.8693 10.924C83.1413 10.412 83.5133 10.016 83.9853 9.736C84.4653 9.456 85.0013 9.316 85.5933 9.316C86.1053 9.316 86.5813 9.436 87.0213 9.676C87.4613 9.908 87.7973 10.216 88.0293 10.6V7.12H89.1333V16H88.0293V14.764C87.8133 15.156 87.4933 15.48 87.0693 15.736C86.6453 15.984 86.1493 16.108 85.5813 16.108C84.9973 16.108 84.4653 15.964 83.9853 15.676C83.5133 15.388 83.1413 14.984 82.8693 14.464C82.5973 13.944 82.4613 13.352 82.4613 12.688ZM88.0293 12.7C88.0293 12.204 87.9293 11.772 87.7293 11.404C87.5293 11.036 87.2573 10.756 86.9133 10.564C86.5773 10.364 86.2053 10.264 85.7973 10.264C85.3893 10.264 85.0173 10.36 84.6813 10.552C84.3453 10.744 84.0773 11.024 83.8773 11.392C83.6773 11.76 83.5773 12.192 83.5773 12.688C83.5773 13.192 83.6773 13.632 83.8773 14.008C84.0773 14.376 84.3453 14.66 84.6813 14.86C85.0173 15.052 85.3893 15.148 85.7973 15.148C86.2053 15.148 86.5773 15.052 86.9133 14.86C87.2573 14.66 87.5293 14.376 87.7293 14.008C87.9293 13.632 88.0293 13.196 88.0293 12.7ZM95.5099 10.324V14.2C95.5099 14.52 95.5779 14.748 95.7139 14.884C95.8499 15.012 96.0859 15.076 96.4219 15.076H97.2259V16H96.2419C95.6339 16 95.1779 15.86 94.8739 15.58C94.5699 15.3 94.4179 14.84 94.4179 14.2V10.324H93.5659V9.424H94.4179V7.768H95.5099V9.424H97.2259V10.324H95.5099ZM101.417 16.108C100.801 16.108 100.241 15.968 99.737 15.688C99.241 15.408 98.849 15.012 98.561 14.5C98.281 13.98 98.141 13.38 98.141 12.7C98.141 12.028 98.285 11.436 98.573 10.924C98.869 10.404 99.269 10.008 99.773 9.736C100.277 9.456 100.841 9.316 101.465 9.316C102.089 9.316 102.653 9.456 103.157 9.736C103.661 10.008 104.057 10.4 104.345 10.912C104.641 11.424 104.789 12.02 104.789 12.7C104.789 13.38 104.637 13.98 104.333 14.5C104.037 15.012 103.633 15.408 103.121 15.688C102.609 15.968 102.041 16.108 101.417 16.108ZM101.417 15.148C101.809 15.148 102.177 15.056 102.521 14.872C102.865 14.688 103.141 14.412 103.349 14.044C103.565 13.676 103.673 13.228 103.673 12.7C103.673 12.172 103.569 11.724 103.361 11.356C103.153 10.988 102.881 10.716 102.545 10.54C102.209 10.356 101.845 10.264 101.453 10.264C101.053 10.264 100.685 10.356 100.349 10.54C100.021 10.716 99.757 10.988 99.557 11.356C99.357 11.724 99.257 12.172 99.257 12.7C99.257 13.236 99.353 13.688 99.545 14.056C99.745 14.424 100.009 14.7 100.337 14.884C100.665 15.06 101.025 15.148 101.417 15.148Z" fill="#BDBDBD"/>
<path d="M35.4168 34.8C33.7834 36.3833 32.0001 36.1333 30.2834 35.3833C28.4668 34.6167 26.8001 34.5833 24.8834 35.3833C22.4834 36.4167 21.2168 36.1167 19.7834 34.8C11.6501 26.4167 12.8501 13.65 22.0834 13.1833C24.3334 13.3 25.9001 14.4167 27.2168 14.5167C29.1834 14.1167 31.0668 12.9667 33.1668 13.1167C35.6834 13.3167 37.5834 14.3167 38.8334 16.1167C33.6334 19.2333 34.8668 26.0833 39.6334 28C38.6834 30.5 37.4501 32.9833 35.4001 34.8167L35.4168 34.8ZM27.0501 13.0833C26.8001 9.36667 29.8168 6.3 33.2834 6C33.7668 10.3 29.3834 13.5 27.0501 13.0833Z" fill="#C9C9C9"/>
<defs>
<filter id="filter0_b_199_1657" x="-25.0417" y="-25.0417" width="185.083" height="95.646" filterUnits="userSpaceOnUse" color-interpolation-filters="sRGB">
<feFlood flood-opacity="0" result="BackgroundImageFix"/>
<feGaussianBlur in="BackgroundImageFix" stdDeviation="12.5209"/>
<feComposite in2="SourceAlpha" operator="in" result="effect1_backgroundBlur_199_1657"/>
<feBlend mode="normal" in="SourceGraphic" in2="effect1_backgroundBlur_199_1657" result="shape"/>
</filter>
</defs>
</svg>
