<svg width="19" height="13" viewBox="0 0 19 13" fill="none" xmlns="http://www.w3.org/2000/svg">
<g clip-path="url(#clip0_4_20)">
<path d="M19 6.74664C18.9809 6.77566 18.9425 6.81918 18.9234 6.8482C18.7127 7.47209 17.9466 7.87833 17.0655 7.87833C12.0091 7.87833 6.95263 7.87833 1.91533 7.87833C0.80444 7.87833 -0.0383022 7.23994 4.27209e-06 6.42744C0.0383107 5.67298 0.861899 5.09262 1.91533 5.09262C3.10283 5.09262 4.27117 5.09262 5.45867 5.09262C9.30847 5.09262 13.1583 5.09262 17.0272 5.09262C17.6784 5.09262 18.2339 5.25222 18.6169 5.65847C18.7702 5.81807 18.8468 6.02119 18.9617 6.20981C18.9809 6.22432 18.9809 6.25334 19 6.26784C19 6.42744 19 6.58704 19 6.74664Z" fill="#2A3042"/>
<path d="M19 1.63951C18.9234 1.77009 18.8659 1.90067 18.7893 2.03125C18.4445 2.52455 17.87 2.78571 17.1421 2.78571C12.0665 2.78571 6.97177 2.78571 1.89616 2.78571C0.70866 2.78571 -0.153235 2.00223 0.0574504 1.1317C0.191523 0.507813 0.938499 0.0145089 1.78124 0C1.81955 0 1.85785 0 1.91531 0C6.97177 0 12.0282 0 17.0847 0C17.7167 0 18.253 0.174107 18.6169 0.565848C18.7702 0.725447 18.8468 0.928571 18.9617 1.10268C18.9808 1.11719 18.9808 1.1317 19 1.16071C19 1.32031 19 1.47991 19 1.63951Z" fill="#2A3042"/>
<path d="M19 11.8683C18.9808 11.8973 18.9425 11.9409 18.9234 11.9699C18.6552 12.6228 17.9849 12.9855 17.0847 12.9855C12.0282 12.9855 6.97177 12.9855 1.91532 12.9855C0.842742 12.9855 0 12.3761 0 11.6072C0 10.8817 0.785282 10.2433 1.74294 10.2143C1.8004 10.2143 1.85786 10.2143 1.93448 10.2143C6.97177 10.2143 12.0282 10.2143 17.0655 10.2143C17.8508 10.2143 18.4446 10.4755 18.8085 11.0268C18.8851 11.1429 18.9234 11.2734 19 11.404C19 11.5491 19 11.7087 19 11.8683Z" fill="#2A3042"/>
</g>
<defs>
<clipPath id="clip0_4_20">
<rect width="19" height="13" fill="white"/>
</clipPath>
</defs>
</svg>
