<svg width="30" height="30" viewBox="0 0 30 30" fill="none" xmlns="http://www.w3.org/2000/svg">
<path d="M27.5225 16.6224L22.6238 19.3949L18.23 15.0287L22.6588 10.6274L27.5225 13.3799C27.8096 13.5422 28.0484 13.7779 28.2145 14.0627C28.3807 14.3475 28.4682 14.6714 28.4682 15.0012C28.4682 15.3309 28.3807 15.6548 28.2145 15.9396C28.0484 16.2245 27.8096 16.4601 27.5225 16.6224ZM1.67125 1.15492C1.57849 1.38012 1.53092 1.62136 1.53125 1.86492V28.1362C1.53125 28.4074 1.5875 28.6599 1.68625 28.8862L15.63 15.0274L1.67125 1.15492ZM16.93 13.7362L21.0025 9.68867L4.3125 0.243671C3.95476 0.0380898 3.53812 -0.0407472 3.13 0.0199205L16.93 13.7362ZM16.93 16.3199L3.18 29.9862C3.5525 30.0312 3.945 29.9662 4.3125 29.7574L20.9675 20.3324L16.93 16.3199Z" fill="#C9C9C9"/>
</svg>
